<?xml version="1.0" encoding="utf-8"?>
<!-- Generator: Adobe Illustrator 25.2.1, SVG Export Plug-In . SVG Version: 6.00 Build 0)  -->
<svg version="1.1" id="레이어_1" xmlns="http://www.w3.org/2000/svg" xmlns:xlink="http://www.w3.org/1999/xlink" x="0px"
	 y="0px" viewBox="0 0 510 75.11" style="enable-background:new 0 0 510 75.11;" xml:space="preserve">
<style type="text/css">
	.st0{fill:#493586;}
	.st1{fill:#DBD7E7;}
	.st2{fill:#FFFFFF;}
</style>
<rect class="st0" width="510" height="75.11"/>
<g>
	<path class="st1" d="M27.28,32.98c-0.1,0-0.19-0.02-0.28-0.07c-1.76-0.94-2.42-1.36-3.36-2.26c-0.89,0.24-1.81,0.37-2.74,0.37
		c-5.4,0-9.79-4.15-9.79-9.24c0-5.1,4.39-9.24,9.79-9.24c5.4,0,9.79,4.15,9.79,9.24c0,2.45-1,4.74-2.81,6.48l-0.02,4.14
		c0,0.21-0.11,0.4-0.29,0.5C27.49,32.95,27.38,32.98,27.28,32.98z M23.8,29.41c0.15,0,0.3,0.06,0.41,0.17
		c0.82,0.82,1.32,1.18,2.48,1.83L26.71,28c0-0.16,0.07-0.32,0.19-0.43c1.69-1.53,2.62-3.59,2.62-5.79c0-4.45-3.87-8.07-8.62-8.07
		c-4.75,0-8.62,3.62-8.62,8.07c0,4.45,3.87,8.07,8.62,8.07c0.93,0,1.85-0.14,2.73-0.41C23.69,29.42,23.75,29.41,23.8,29.41z"/>
	<path class="st1" d="M20.93,23.72c-0.32,0-0.59-0.26-0.59-0.59c0-1.35,0.78-2,1.36-2.47c0.51-0.42,0.78-0.66,0.78-1.17
		c0-0.49-0.13-1.11-0.76-1.27c-0.59-0.15-1.46,0.18-1.91,0.99c-0.16,0.28-0.51,0.39-0.8,0.23c-0.28-0.16-0.39-0.51-0.23-0.8
		c0.66-1.19,2.04-1.86,3.23-1.56c1.03,0.26,1.64,1.16,1.64,2.4c0,1.08-0.67,1.63-1.2,2.07c-0.52,0.43-0.93,0.77-0.93,1.57
		C21.52,23.46,21.26,23.72,20.93,23.72z"/>
	<path class="st1" d="M20.91,26.45c-0.32,0-0.59-0.26-0.59-0.59c0-0.12,0.01-0.24,0.02-0.35c0.03-0.32,0.32-0.56,0.65-0.52
		c0.32,0.03,0.56,0.32,0.52,0.65c-0.01,0.07-0.01,0.15-0.01,0.23C21.5,26.19,21.24,26.45,20.91,26.45z"/>
	<path class="st1" d="M33.2,32.77c-0.02,0-0.04,0-0.07,0c-0.32-0.04-0.55-0.33-0.52-0.65l0.61-5.5c0.04-0.32,0.33-0.55,0.65-0.52
		c0.32,0.04,0.55,0.33,0.52,0.65l-0.61,5.5C33.75,32.55,33.49,32.77,33.2,32.77z"/>
	<path class="st1" d="M33.01,35.49c-0.01,0-0.02,0-0.04,0c-0.32-0.02-0.57-0.3-0.55-0.62c0.01-0.12,0.02-0.24,0.04-0.35
		c0.05-0.32,0.36-0.53,0.68-0.48c0.32,0.05,0.53,0.36,0.48,0.68c-0.01,0.07-0.02,0.15-0.03,0.23
		C33.58,35.25,33.32,35.49,33.01,35.49z"/>
	<path class="st1" d="M24.41,41.62c-0.32,0-0.59-0.26-0.59-0.58l-0.02-4.14C21.99,35.16,21,32.87,21,30.42
		c0-0.32,0.26-0.59,0.59-0.59s0.59,0.26,0.59,0.59c0,2.2,0.93,4.26,2.62,5.79c0.12,0.11,0.19,0.27,0.19,0.43L25,41.03
		C25,41.36,24.74,41.62,24.41,41.62C24.41,41.62,24.41,41.62,24.41,41.62z"/>
	<path class="st1" d="M24.41,41.62c-0.21,0-0.41-0.11-0.52-0.31c-0.15-0.29-0.05-0.64,0.24-0.79c1.81-0.98,2.34-1.3,3.34-2.3
		c0.15-0.15,0.38-0.21,0.59-0.14c0.88,0.27,1.8,0.41,2.73,0.41c4.75,0,8.62-3.62,8.62-8.07c0-4.45-3.87-8.07-8.62-8.07
		c-0.32,0-0.59-0.26-0.59-0.59s0.26-0.59,0.59-0.59c5.4,0,9.79,4.15,9.79,9.24c0,5.1-4.39,9.24-9.79,9.24
		c-0.93,0-1.85-0.12-2.74-0.37c-0.94,0.9-1.6,1.31-3.36,2.26C24.6,41.6,24.51,41.62,24.41,41.62z"/>
	<path class="st1" d="M30.55,35.49c-0.01,0-0.02,0-0.04,0c-0.32-0.02-0.57-0.3-0.55-0.62c0.01-0.12,0.02-0.24,0.04-0.35
		c0.05-0.32,0.36-0.53,0.68-0.48c0.32,0.05,0.53,0.36,0.48,0.68c-0.01,0.07-0.02,0.15-0.03,0.23
		C31.12,35.25,30.86,35.49,30.55,35.49z"/>
	<path class="st1" d="M28.09,35.49c-0.01,0-0.02,0-0.04,0c-0.32-0.02-0.57-0.3-0.55-0.62c0.01-0.12,0.02-0.24,0.04-0.35
		c0.05-0.32,0.36-0.53,0.68-0.48c0.32,0.05,0.53,0.36,0.48,0.68c-0.01,0.07-0.02,0.15-0.03,0.23C28.66,35.25,28.4,35.49,28.09,35.49
		z"/>
</g>
<g>
	<path class="st2" d="M50.48,24.82v-0.65h2.22v-3.31h0.73v3.31h1.53v-3.31h0.74v3.31h3.48v0.65H50.48z M58.06,19.32
		c-0.04,0.39-0.09,0.82-0.15,1.28c-0.07,0.58-0.14,1.1-0.23,1.59c-0.09,0.48-0.14,0.74-0.14,0.78h-0.72
		c0.01-0.08,0.1-0.64,0.27-1.69c0.16-1.05,0.26-1.93,0.28-2.63h-5.82v-0.65h6.62C58.14,18.48,58.11,18.92,58.06,19.32z"/>
	<path class="st2" d="M65.79,22.04v1.4H67v2.68h-0.74V24.1h-5.72v-0.65h1.37v-1.4h-2.42v-0.65h8.71v0.65H65.79z M66.27,17.36
		c0.56,0.35,0.84,0.79,0.84,1.31c0,0.53-0.28,0.96-0.84,1.31c-0.56,0.35-1.37,0.52-2.43,0.52c-1.05,0-1.87-0.17-2.43-0.52
		c-0.57-0.35-0.85-0.78-0.85-1.31c0-0.52,0.28-0.95,0.85-1.31c0.57-0.35,1.38-0.53,2.43-0.53C64.9,16.83,65.71,17.01,66.27,17.36z
		 M62.02,17.78c-0.46,0.22-0.69,0.52-0.69,0.88c0,0.35,0.23,0.64,0.7,0.87c0.46,0.23,1.07,0.35,1.82,0.35c0.74,0,1.34-0.11,1.8-0.34
		c0.46-0.23,0.69-0.52,0.69-0.88s-0.23-0.65-0.69-0.88c-0.46-0.23-1.06-0.34-1.81-0.34C63.09,17.44,62.48,17.56,62.02,17.78z
		 M65.05,22.04h-2.4v1.4h2.4V22.04z"/>
	<path class="st2" d="M72.94,24.3c-0.84,0.06-1.94,0.09-3.3,0.09h-1.01v-0.65h1.9v-2.98h0.74v2.98c0.45,0,1.07-0.03,1.87-0.08
		c0.79-0.06,1.38-0.12,1.76-0.18v0.64C74.44,24.18,73.79,24.24,72.94,24.3z M73.91,19.15c-0.04,0.42-0.07,0.8-0.11,1.15
		c-0.07,0.55-0.13,1.02-0.19,1.41c-0.06,0.39-0.1,0.59-0.1,0.61h-0.73c0.01-0.06,0.08-0.56,0.21-1.48c0.13-0.93,0.19-1.66,0.2-2.21
		h-4.04v-0.65h4.85C73.97,18.35,73.95,18.74,73.91,19.15z M76.06,20.89h1.38v0.66h-1.38v4.58h-0.74v-9.26h0.74V20.89z"/>
	<path class="st2" d="M82.97,21.85c-0.11-0.04-0.32-0.14-0.62-0.28c-0.3-0.14-0.59-0.35-0.86-0.61c-0.22-0.22-0.4-0.42-0.53-0.59
		c-0.13-0.17-0.25-0.37-0.36-0.58c-0.09,0.22-0.21,0.43-0.37,0.65c-0.16,0.22-0.35,0.44-0.58,0.66c-0.26,0.26-0.54,0.47-0.82,0.64
		c-0.28,0.17-0.49,0.29-0.64,0.36l-0.52-0.55c0.24-0.11,0.53-0.27,0.86-0.48c0.33-0.21,0.63-0.47,0.91-0.77
		c0.19-0.22,0.36-0.49,0.51-0.83c0.15-0.33,0.23-0.7,0.25-1.1l0.01-0.23h-1.96v-0.66h4.71v0.66h-1.98L81,18.37
		c0.01,0.39,0.09,0.75,0.23,1.06c0.14,0.32,0.32,0.59,0.54,0.81c0.26,0.27,0.55,0.49,0.89,0.66c0.34,0.18,0.59,0.29,0.75,0.35
		L82.97,21.85z M84.9,25.8c-0.55,0.34-1.35,0.51-2.41,0.51c-1.05,0-1.85-0.17-2.4-0.51c-0.55-0.34-0.83-0.77-0.83-1.29
		c0-0.53,0.28-0.96,0.83-1.31c0.55-0.34,1.36-0.52,2.4-0.52c1.05,0,1.86,0.17,2.41,0.52c0.55,0.34,0.83,0.78,0.83,1.31
		C85.72,25.03,85.45,25.46,84.9,25.8z M84.23,23.64c-0.45-0.21-1.03-0.32-1.74-0.32c-0.72,0-1.31,0.1-1.76,0.31
		c-0.46,0.21-0.68,0.5-0.68,0.87c0,0.36,0.23,0.64,0.68,0.86c0.46,0.21,1.04,0.32,1.76,0.32c0.71,0,1.28-0.11,1.74-0.32
		c0.45-0.21,0.68-0.49,0.68-0.85C84.91,24.15,84.68,23.85,84.23,23.64z M84.85,22.49v-2.72h-2.03v-0.66h2.03v-2.24h0.73v5.62H84.85z
		"/>
	<path class="st2" d="M90.95,24.3c-0.84,0.06-1.94,0.09-3.3,0.09h-1.01v-0.65h1.9v-2.98h0.74v2.98c0.45,0,1.07-0.03,1.87-0.08
		c0.79-0.06,1.38-0.12,1.76-0.18v0.64C92.44,24.18,91.79,24.24,90.95,24.3z M91.92,19.15c-0.04,0.42-0.07,0.8-0.11,1.15
		c-0.07,0.55-0.13,1.02-0.19,1.41c-0.06,0.39-0.1,0.59-0.1,0.61h-0.73c0.01-0.06,0.08-0.56,0.21-1.48c0.13-0.93,0.19-1.66,0.2-2.21
		h-4.04v-0.65h4.85C91.98,18.35,91.96,18.74,91.92,19.15z M94.06,20.89h1.38v0.66h-1.38v4.58h-0.74v-9.26h0.74V20.89z"/>
	<path class="st2" d="M102.99,22.31c-0.8,0.05-1.72,0.08-2.79,0.08h-1.28v-0.65h1.97v-2.16h0.74v2.16c0.38,0,0.97-0.03,1.8-0.09
		c0.82-0.06,1.45-0.13,1.9-0.2v0.65C104.57,22.19,103.79,22.26,102.99,22.31z M104.27,18.44c-0.03,0.33-0.07,0.63-0.11,0.89
		c-0.07,0.42-0.12,0.75-0.17,1c-0.05,0.25-0.07,0.38-0.08,0.39h-0.73c0.01-0.04,0.07-0.36,0.17-0.96c0.1-0.6,0.16-1.16,0.19-1.67
		h-3.97v-0.65h4.78C104.33,17.78,104.31,18.11,104.27,18.44z M100.52,25.92v-2.67h0.73v2.02h5.5v0.65H100.52z M106.43,20.6v3.16
		h-0.74v-6.89h0.74v3.08h1.28v0.65H106.43z"/>
	<path class="st2" d="M112.7,22.47c-0.54,0.05-1.07,0.08-1.58,0.09l-2.54,0.03v-2.87h3.4v-1.69h-3.4v-0.65h4.14v2.98h-3.4v1.59
		l2.01-0.02c0.44-0.01,0.92-0.04,1.43-0.09c0.51-0.05,0.92-0.09,1.22-0.13v0.63C113.67,22.38,113.24,22.42,112.7,22.47z
		 M109.65,25.92v-2.57h0.73v1.93h5.57v0.64H109.65z M115,23.7v-2.91h-1.7v-0.63h1.7v-1.17h-1.7v-0.63h1.7v-1.49h0.73v6.83H115z"/>
	<path class="st2" d="M117.23,18.98v-0.61h5.47v0.61H117.23z M118.28,22.26c-0.41-0.32-0.62-0.69-0.62-1.11
		c0-0.43,0.21-0.81,0.62-1.13s0.98-0.47,1.69-0.47c0.73,0,1.29,0.16,1.7,0.47s0.61,0.69,0.61,1.13c0,0.42-0.2,0.79-0.61,1.11
		c-0.41,0.32-0.98,0.48-1.7,0.48C119.25,22.74,118.69,22.58,118.28,22.26z M121.1,20.43c-0.26-0.2-0.63-0.31-1.13-0.31
		c-0.49,0-0.87,0.1-1.13,0.31c-0.26,0.2-0.39,0.44-0.39,0.71c0,0.26,0.13,0.49,0.39,0.69c0.26,0.2,0.63,0.3,1.13,0.3
		c0.49,0,0.87-0.1,1.13-0.29c0.26-0.2,0.39-0.43,0.39-0.69S121.36,20.64,121.1,20.43z M118.5,17.54v-0.61h2.88v0.61H118.5z
		 M118.59,25.92v-2.6h0.74v1.96h5.42v0.64H118.59z M124.48,19.71h1.31v0.66h-1.31v3.4h-0.73v-6.9h0.73V19.71z"/>
	<path class="st2" d="M133.76,22.06v4.06h-0.74v-4.06h-3.78v-0.65h6.33c0.06-0.27,0.15-0.75,0.26-1.46c0.11-0.71,0.2-1.33,0.24-1.85
		h-5.82v-0.65h6.66c-0.01,0.18-0.04,0.49-0.09,0.95c-0.06,0.46-0.12,0.89-0.18,1.29c-0.05,0.34-0.1,0.68-0.17,1.02
		c-0.07,0.34-0.11,0.57-0.14,0.71h1.61v0.65H133.76z"/>
	<path class="st2" d="M142.72,24.3c-0.09-0.06-0.23-0.16-0.42-0.31c-0.19-0.15-0.41-0.37-0.65-0.65c-0.2-0.25-0.38-0.5-0.52-0.77
		c-0.14-0.27-0.23-0.48-0.26-0.62c-0.03,0.14-0.12,0.35-0.26,0.63c-0.14,0.28-0.33,0.55-0.55,0.82c-0.23,0.28-0.47,0.52-0.71,0.71
		c-0.24,0.19-0.43,0.32-0.56,0.39l-0.57-0.54c0.15-0.08,0.38-0.23,0.69-0.46c0.31-0.23,0.59-0.52,0.83-0.86
		c0.22-0.3,0.39-0.66,0.53-1.06c0.13-0.41,0.2-0.8,0.2-1.18v-0.46h-1.74v-0.66h4.23v0.66h-1.7v0.46c0,0.39,0.06,0.77,0.19,1.16
		c0.13,0.39,0.29,0.72,0.49,1c0.26,0.34,0.49,0.6,0.7,0.77c0.21,0.17,0.38,0.29,0.53,0.38L142.72,24.3z M139.61,18.2v-0.66h2.48
		v0.66H139.61z M143.91,25.71v-4.15h-1.43v-0.67h1.43V17.1h0.72v8.61H143.91z M145.72,26.13v-9.26h0.72v9.26H145.72z"/>
	<path class="st2" d="M152.73,21.96c-0.12-0.04-0.33-0.14-0.63-0.28c-0.3-0.14-0.59-0.35-0.86-0.61c-0.22-0.22-0.4-0.42-0.53-0.59
		c-0.13-0.17-0.25-0.37-0.37-0.58c-0.08,0.21-0.2,0.42-0.36,0.64c-0.16,0.22-0.36,0.44-0.59,0.67c-0.26,0.26-0.53,0.47-0.81,0.64
		c-0.28,0.17-0.49,0.29-0.63,0.36l-0.51-0.55c0.23-0.11,0.51-0.27,0.85-0.48c0.33-0.21,0.64-0.46,0.92-0.77
		c0.21-0.23,0.39-0.52,0.54-0.87c0.15-0.35,0.23-0.73,0.23-1.15v-0.25H148V17.5h4.72v0.64h-1.98v0.25c0,0.41,0.07,0.78,0.21,1.11
		c0.14,0.33,0.33,0.61,0.56,0.86c0.26,0.27,0.56,0.49,0.9,0.66c0.34,0.18,0.59,0.29,0.76,0.35L152.73,21.96z M154.6,26.13v-2.49
		h-5.55v-0.64h6.28v3.14H154.6z M154.6,22.37v-2.6h-2.02V19.1h2.02v-2.23h0.73v5.5H154.6z"/>
	<path class="st2" d="M160.81,17.88c0.45,0.46,0.67,1.01,0.67,1.66c0,0.65-0.22,1.2-0.67,1.66c-0.45,0.46-1.02,0.69-1.71,0.69
		c-0.7,0-1.27-0.23-1.72-0.69c-0.45-0.46-0.67-1.01-0.67-1.66c0-0.65,0.22-1.2,0.67-1.66c0.45-0.46,1.02-0.69,1.72-0.69
		C159.79,17.19,160.36,17.42,160.81,17.88z M157.91,18.37c-0.28,0.32-0.42,0.71-0.42,1.17c0,0.46,0.14,0.84,0.42,1.16
		c0.28,0.32,0.67,0.48,1.18,0.48c0.52,0,0.92-0.16,1.19-0.48c0.27-0.32,0.41-0.71,0.41-1.16c0-0.46-0.14-0.85-0.41-1.17
		c-0.27-0.32-0.67-0.48-1.19-0.48C158.59,17.89,158.19,18.05,157.91,18.37z M158.13,25.92v-2.88h0.74v2.24h5.57v0.64H158.13z
		 M163.49,23.59v-6.73h0.73v6.73H163.49z"/>
	<path class="st2" d="M168.61,24.78v-0.65h8.71v0.65H168.61z M169.43,22.45v-0.64h1.49l-0.22-2.9h0.74l0.22,2.9h2.59l0.22-2.9h0.73
		l-0.22,2.9h1.5v0.64H169.43z M169.63,18.55V17.9h6.67v0.65H169.63z"/>
	<path class="st2" d="M177.62,24.97v-0.65h3.94v-1.68h-2.7v-2.82h5.37V18.3h-5.4v-0.65h6.13v2.81h-5.37v1.53h5.72v0.65h-2.99v1.68
		h4.01v0.65H177.62z"/>
	<path class="st2" d="M186.62,24.65V24h6.09c0.07-0.41,0.19-1.2,0.36-2.37c0.17-1.17,0.26-2.09,0.28-2.77h-5.71V18.2h6.52
		c-0.02,0.47-0.05,0.94-0.1,1.39c-0.05,0.46-0.11,0.96-0.18,1.51c-0.07,0.58-0.15,1.15-0.24,1.71c-0.09,0.56-0.15,0.96-0.19,1.18
		h1.87v0.65H186.62z"/>
	<path class="st2" d="M199.36,21.83c-0.48,0.04-0.89,0.07-1.23,0.08l-1.91,0.02v-2.61h2.61v-1.27h-2.61v-0.66h3.35v2.58h-2.61v1.31
		l1.33-0.01c0.33-0.01,0.71-0.04,1.15-0.08c0.43-0.04,0.76-0.08,0.97-0.11v0.65C200.19,21.76,199.84,21.79,199.36,21.83z
		 M197.36,26.02v-3.06h6.19v3.06H197.36z M202.81,23.59h-4.71v1.79h4.71V23.59z M202.88,22.41v-2.48h-1.26v2.48h-0.72v-5.39h0.72
		v2.22h1.26v-2.38h0.72v5.55H202.88z"/>
	<path class="st2" d="M204.63,22.4v-0.65h8.71v0.65H204.63z M211.37,20.2c-0.57,0.36-1.37,0.55-2.41,0.55
		c-1.01,0-1.81-0.18-2.39-0.55c-0.58-0.36-0.88-0.82-0.88-1.38c0-0.55,0.29-1.02,0.87-1.41c0.58-0.39,1.38-0.59,2.39-0.59
		c1.04,0,1.84,0.19,2.41,0.58s0.86,0.86,0.86,1.42C212.22,19.38,211.94,19.84,211.37,20.2z M205.81,25.92v-2.67h0.74v2.02h5.89v0.65
		H205.81z M210.75,17.83c-0.47-0.26-1.07-0.39-1.79-0.39c-0.71,0-1.3,0.13-1.77,0.39c-0.47,0.26-0.71,0.59-0.71,0.98
		c0,0.4,0.24,0.71,0.73,0.94c0.49,0.23,1.07,0.34,1.75,0.34c0.71,0,1.3-0.11,1.78-0.34c0.48-0.23,0.72-0.54,0.72-0.94
		C211.45,18.42,211.22,18.09,210.75,17.83z"/>
	<path class="st2" d="M216.99,24.82v-0.65h2.22v-3.31h0.73v3.31h1.53v-3.31h0.74v3.31h3.48v0.65H216.99z M224.58,19.32
		c-0.04,0.39-0.09,0.82-0.15,1.28c-0.07,0.58-0.14,1.1-0.23,1.59c-0.09,0.48-0.14,0.74-0.14,0.78h-0.72
		c0.01-0.08,0.1-0.64,0.27-1.69c0.16-1.05,0.26-1.93,0.28-2.63h-5.82v-0.65h6.62C224.65,18.48,224.62,18.92,224.58,19.32z"/>
	<path class="st2" d="M232.3,22.04v1.4h1.22v2.68h-0.74V24.1h-5.72v-0.65h1.37v-1.4H226v-0.65h8.71v0.65H232.3z M232.78,17.36
		c0.56,0.35,0.84,0.79,0.84,1.31c0,0.53-0.28,0.96-0.84,1.31c-0.56,0.35-1.37,0.52-2.43,0.52c-1.06,0-1.87-0.17-2.43-0.52
		c-0.57-0.35-0.85-0.78-0.85-1.31c0-0.52,0.28-0.95,0.85-1.31c0.57-0.35,1.38-0.53,2.43-0.53
		C231.41,16.83,232.22,17.01,232.78,17.36z M228.53,17.78c-0.46,0.22-0.69,0.52-0.69,0.88c0,0.35,0.23,0.64,0.7,0.87
		c0.47,0.23,1.07,0.35,1.82,0.35c0.74,0,1.34-0.11,1.8-0.34c0.46-0.23,0.69-0.52,0.69-0.88s-0.23-0.65-0.69-0.88
		c-0.46-0.23-1.06-0.34-1.81-0.34C229.6,17.44,228.99,17.56,228.53,17.78z M231.57,22.04h-2.4v1.4h2.4V22.04z"/>
	<path class="st2" d="M238.93,23.86c-0.31,0.05-0.69,0.08-1.14,0.09c-0.44,0.02-0.87,0.03-1.3,0.03s-0.65,0-0.67,0v-5.92h3.1v0.66
		h-2.35v4.58l1.42-0.02c0.3-0.01,0.6-0.03,0.92-0.08c0.31-0.05,0.56-0.08,0.74-0.11v0.65C239.48,23.78,239.25,23.81,238.93,23.86z
		 M242.24,26.13v-4.9h-1.36v4.48h-0.72v-8.63h0.72v3.46h1.36v-3.67h0.72v9.26H242.24z"/>
	<path class="st2" d="M249.45,21.9c-0.18-0.08-0.43-0.22-0.74-0.42c-0.32-0.2-0.61-0.45-0.88-0.74c-0.2-0.22-0.38-0.44-0.53-0.65
		c-0.15-0.21-0.27-0.43-0.36-0.65c-0.07,0.24-0.19,0.49-0.36,0.75c-0.17,0.26-0.37,0.51-0.58,0.74c-0.24,0.27-0.5,0.5-0.77,0.71
		c-0.27,0.21-0.51,0.37-0.72,0.49l-0.52-0.51c0.24-0.12,0.53-0.31,0.88-0.57c0.35-0.26,0.64-0.55,0.88-0.85
		c0.24-0.31,0.43-0.65,0.59-1.04c0.16-0.38,0.23-0.81,0.23-1.27v-0.75h0.76v0.75c0,0.47,0.08,0.88,0.23,1.22
		c0.15,0.34,0.34,0.64,0.55,0.89c0.3,0.34,0.61,0.62,0.95,0.84c0.34,0.22,0.63,0.37,0.89,0.46L249.45,21.9z M251.03,25.8
		c-0.52,0.34-1.3,0.51-2.34,0.51c-1.05,0-1.84-0.17-2.36-0.51c-0.52-0.34-0.79-0.78-0.79-1.31c0-0.53,0.26-0.96,0.79-1.31
		c0.52-0.35,1.31-0.52,2.36-0.52c1.04,0,1.82,0.17,2.34,0.52c0.52,0.34,0.78,0.78,0.78,1.32C251.81,25.02,251.55,25.46,251.03,25.8z
		 M250.38,23.61c-0.42-0.22-0.99-0.33-1.69-0.33c-0.72,0-1.29,0.11-1.72,0.32c-0.43,0.21-0.64,0.51-0.64,0.89
		c0,0.36,0.21,0.65,0.64,0.87c0.43,0.21,1,0.32,1.72,0.32c0.71,0,1.27-0.11,1.69-0.32c0.42-0.21,0.63-0.5,0.63-0.87
		C251.02,24.12,250.81,23.83,250.38,23.61z M251.58,19.92v2.57h-0.73v-5.62h0.73v2.39h1.31v0.66H251.58z"/>
	<path class="st2" d="M254.48,25.38c0,0.12-0.02,0.24-0.05,0.37c-0.04,0.13-0.1,0.26-0.19,0.38c-0.09,0.12-0.18,0.21-0.29,0.27
		c-0.11,0.06-0.21,0.11-0.3,0.15l-0.26-0.34c0.17-0.02,0.31-0.09,0.43-0.21s0.17-0.24,0.17-0.35h-0.61v-1.01h1.12V25.38z"/>
	<path class="st2" d="M258.79,24.82v-0.65h2.22v-3.31h0.73v3.31h1.53v-3.31h0.74v3.31h3.48v0.65H258.79z M266.38,19.32
		c-0.04,0.39-0.09,0.82-0.15,1.28c-0.07,0.58-0.14,1.1-0.23,1.59c-0.09,0.48-0.14,0.74-0.14,0.78h-0.72
		c0.01-0.08,0.1-0.64,0.27-1.69c0.16-1.05,0.26-1.93,0.28-2.63h-5.82v-0.65h6.62C266.45,18.48,266.42,18.92,266.38,19.32z"/>
	<path class="st2" d="M274.1,22.04v1.4h1.22v2.68h-0.74V24.1h-5.72v-0.65h1.37v-1.4h-2.42v-0.65h8.71v0.65H274.1z M274.58,17.36
		c0.56,0.35,0.84,0.79,0.84,1.31c0,0.53-0.28,0.96-0.84,1.31c-0.56,0.35-1.37,0.52-2.43,0.52c-1.06,0-1.87-0.17-2.43-0.52
		c-0.57-0.35-0.85-0.78-0.85-1.31c0-0.52,0.28-0.95,0.85-1.31c0.57-0.35,1.38-0.53,2.43-0.53
		C273.21,16.83,274.02,17.01,274.58,17.36z M270.33,17.78c-0.46,0.22-0.69,0.52-0.69,0.88c0,0.35,0.23,0.64,0.7,0.87
		c0.47,0.23,1.07,0.35,1.82,0.35c0.74,0,1.34-0.11,1.8-0.34s0.69-0.52,0.69-0.88s-0.23-0.65-0.69-0.88
		c-0.46-0.23-1.06-0.34-1.81-0.34C271.4,17.44,270.79,17.56,270.33,17.78z M273.37,22.04h-2.4v1.4h2.4V22.04z"/>
	<path class="st2" d="M282.41,24.28c-0.19-0.13-0.43-0.3-0.71-0.52s-0.56-0.5-0.82-0.83c-0.26-0.34-0.47-0.68-0.63-1
		c-0.16-0.32-0.27-0.58-0.33-0.78c-0.05,0.2-0.15,0.46-0.3,0.78c-0.15,0.33-0.37,0.69-0.66,1.08c-0.22,0.3-0.48,0.58-0.76,0.84
		c-0.28,0.26-0.54,0.46-0.77,0.63l-0.59-0.53c0.33-0.2,0.67-0.48,1.02-0.82c0.35-0.34,0.65-0.71,0.9-1.12
		c0.26-0.43,0.46-0.9,0.58-1.43c0.13-0.53,0.19-1.05,0.19-1.56v-1.61h0.76v1.61c0,0.51,0.06,1.02,0.19,1.53s0.34,0.99,0.64,1.45
		c0.26,0.4,0.56,0.75,0.9,1.04s0.64,0.51,0.91,0.67L282.41,24.28z M284.1,26.13v-9.26h0.74v9.26H284.1z"/>
	<path class="st2" d="M290.36,19.4c-0.28,0.64-0.65,1.17-1.11,1.61c-0.53,0.5-1.04,0.87-1.51,1.12c-0.48,0.25-0.9,0.44-1.27,0.58
		l-0.49-0.52c0.35-0.11,0.76-0.29,1.24-0.54c0.47-0.25,0.93-0.56,1.37-0.94c0.48-0.41,0.82-0.85,1.02-1.3
		c0.2-0.45,0.32-0.85,0.37-1.2h-3.39v-0.64h4.26C290.8,18.15,290.64,18.76,290.36,19.4z M287.53,25.92v-2.86h0.73v2.22h5.44v0.64
		H287.53z M293.38,20.55v3.04h-0.73v-6.73h0.73v3.03h1.34v0.65H293.38z"/>
	<path class="st2" d="M305.29,21.74v-1.17h-2.22v0.87h-4.2v-4.17h0.73v1.44h2.73v-1.44h0.73v1.05h2.22v-1.46h0.73v4.87H305.29z
		 M302.35,19.35h-2.73v1.46h2.73V19.35z M299.94,26.02v-2.15h5.27v-0.95h-5.27v-0.6h6.05v2.15h-5.28v0.95h5.5v0.6H299.94z
		 M305.29,18.94h-2.22v1.01h2.22V18.94z"/>
	<path class="st2" d="M307.17,24.97v-0.65h3.94v-1.68h-2.7v-2.82h5.37V18.3h-5.4v-0.65h6.13v2.81h-5.37v1.53h5.72v0.65h-2.99v1.68
		h4.01v0.65H307.17z"/>
	<path class="st2" d="M324.99,21.9c-0.18-0.08-0.43-0.22-0.74-0.42c-0.32-0.2-0.61-0.45-0.88-0.74c-0.2-0.22-0.38-0.44-0.53-0.65
		c-0.15-0.21-0.27-0.43-0.36-0.65c-0.07,0.24-0.18,0.49-0.36,0.75c-0.17,0.26-0.37,0.51-0.58,0.74c-0.24,0.27-0.5,0.5-0.77,0.71
		c-0.27,0.21-0.51,0.37-0.72,0.49l-0.52-0.51c0.24-0.12,0.53-0.31,0.88-0.57c0.35-0.26,0.64-0.55,0.88-0.85
		c0.24-0.31,0.43-0.65,0.59-1.04c0.16-0.38,0.23-0.81,0.23-1.27v-0.75h0.76v0.75c0,0.47,0.08,0.88,0.23,1.22
		c0.15,0.34,0.34,0.64,0.55,0.89c0.3,0.34,0.61,0.62,0.95,0.84c0.34,0.22,0.63,0.37,0.89,0.46L324.99,21.9z M326.57,25.8
		c-0.52,0.34-1.3,0.51-2.34,0.51c-1.05,0-1.84-0.17-2.36-0.51c-0.52-0.34-0.79-0.78-0.79-1.31c0-0.53,0.26-0.96,0.79-1.31
		c0.52-0.35,1.31-0.52,2.36-0.52c1.04,0,1.82,0.17,2.34,0.52c0.52,0.34,0.78,0.78,0.78,1.32C327.35,25.02,327.09,25.46,326.57,25.8z
		 M325.92,23.61c-0.42-0.22-0.99-0.33-1.69-0.33c-0.72,0-1.29,0.11-1.72,0.32c-0.43,0.21-0.64,0.51-0.64,0.89
		c0,0.36,0.21,0.65,0.64,0.87c0.43,0.21,1,0.32,1.72,0.32c0.71,0,1.27-0.11,1.69-0.32c0.42-0.21,0.63-0.5,0.63-0.87
		C326.56,24.12,326.34,23.83,325.92,23.61z M327.12,19.92v2.57h-0.73v-5.62h0.73v2.39h1.31v0.66H327.12z"/>
	<path class="st2" d="M333.06,23.45c-0.41,0.62-0.96,0.94-1.65,0.94c-0.69,0-1.23-0.31-1.65-0.93c-0.41-0.62-0.62-1.44-0.62-2.47
		c0-1.03,0.21-1.86,0.62-2.47c0.41-0.62,0.96-0.93,1.65-0.93c0.69,0,1.24,0.31,1.65,0.93c0.41,0.62,0.61,1.44,0.61,2.47
		C333.67,22.01,333.47,22.83,333.06,23.45z M332.55,19.09c-0.26-0.53-0.64-0.79-1.13-0.79c-0.49,0-0.87,0.26-1.13,0.79
		c-0.27,0.53-0.4,1.16-0.4,1.89c0,0.74,0.13,1.38,0.4,1.91c0.27,0.53,0.64,0.79,1.13,0.79c0.49,0,0.87-0.27,1.13-0.8
		c0.26-0.53,0.39-1.17,0.39-1.9C332.94,20.25,332.81,19.62,332.55,19.09z M335.71,26.13v-9.26h0.74v9.26H335.71z"/>
	<path class="st2" d="M337.91,18.83v-0.62h5.47v0.62H337.91z M338.96,21.7c-0.42-0.27-0.63-0.59-0.63-0.96
		c0-0.39,0.21-0.72,0.63-0.99c0.42-0.27,0.98-0.41,1.7-0.41c0.73,0,1.29,0.14,1.7,0.42c0.41,0.28,0.61,0.61,0.61,0.98
		s-0.2,0.7-0.61,0.97c-0.41,0.27-0.98,0.4-1.7,0.4C339.94,22.11,339.38,21.97,338.96,21.7z M339.52,21.29
		c0.26,0.14,0.64,0.21,1.14,0.21c0.5,0,0.88-0.07,1.13-0.21c0.25-0.14,0.38-0.32,0.38-0.56c0-0.21-0.13-0.4-0.38-0.56
		c-0.25-0.16-0.63-0.24-1.13-0.24c-0.49,0-0.87,0.07-1.14,0.22c-0.26,0.14-0.4,0.34-0.4,0.59
		C339.12,20.96,339.25,21.15,339.52,21.29z M339.18,17.54v-0.61h2.88v0.61H339.18z M339.24,26.02v-3.39h0.74v1.02h4.44v-1.02h0.73
		v3.39H339.24z M344.42,24.28h-4.44v1.12h4.44V24.28z M345.16,19.9v2.21h-0.73v-5.24h0.73v2.39h1.31v0.64H345.16z"/>
	<path class="st2" d="M351.65,23.67c-0.56,0.09-1.1,0.14-1.63,0.15c-0.51,0.02-1.05,0.03-1.63,0.03c-0.58,0-0.89,0-0.93,0v-6.1h0.74
		v5.43l1.85-0.02c0.46-0.01,0.97-0.06,1.54-0.14c0.57-0.08,1.02-0.15,1.35-0.22v0.65C352.64,23.51,352.21,23.58,351.65,23.67z
		 M353.59,26.13v-9.26h0.74v9.26H353.59z"/>
	<path class="st2" d="M360.36,23.81c-0.52,0.06-1.08,0.1-1.66,0.11c-0.54,0.02-1.08,0.03-1.61,0.03c-0.53,0-0.81,0-0.85,0V18h4.25
		v0.65h-3.52v4.64l1.94-0.02c0.45-0.01,0.93-0.05,1.45-0.11c0.52-0.06,0.88-0.11,1.09-0.15v0.64
		C361.25,23.7,360.88,23.75,360.36,23.81z M362.84,21.31v4.82h-0.74v-9.26h0.74v3.77h1.4v0.67H362.84z"/>
	<path class="st2" d="M364.91,25.79v-1.14h1.11v1.14H364.91z"/>
	<path class="st2" d="M55,37.37v4.06h-0.74v-4.06h-3.78v-0.65h6.33c0.06-0.27,0.15-0.75,0.26-1.46c0.12-0.71,0.2-1.33,0.24-1.85
		H51.5v-0.65h6.66c-0.01,0.18-0.04,0.49-0.09,0.95c-0.06,0.46-0.12,0.89-0.18,1.29c-0.05,0.34-0.1,0.68-0.17,1.02
		c-0.07,0.34-0.11,0.57-0.14,0.71h1.61v0.65H55z"/>
	<path class="st2" d="M63.97,39.61c-0.09-0.06-0.23-0.16-0.42-0.31c-0.19-0.15-0.41-0.37-0.65-0.65c-0.2-0.25-0.38-0.5-0.52-0.77
		c-0.14-0.27-0.23-0.48-0.26-0.62c-0.03,0.14-0.12,0.35-0.26,0.63c-0.14,0.28-0.33,0.55-0.55,0.82c-0.23,0.28-0.47,0.52-0.71,0.71
		c-0.24,0.19-0.43,0.32-0.56,0.39l-0.57-0.54c0.15-0.08,0.38-0.23,0.69-0.46c0.31-0.23,0.59-0.52,0.83-0.86
		c0.22-0.3,0.39-0.66,0.53-1.06c0.14-0.41,0.2-0.8,0.2-1.18v-0.46h-1.74v-0.66h4.23v0.66h-1.7v0.46c0,0.39,0.06,0.77,0.19,1.16
		c0.13,0.39,0.29,0.72,0.49,1c0.26,0.34,0.49,0.6,0.7,0.77c0.21,0.17,0.38,0.29,0.53,0.38L63.97,39.61z M60.86,33.51v-0.66h2.48
		v0.66H60.86z M65.15,41.02v-4.15h-1.43V36.2h1.43v-3.79h0.72v8.61H65.15z M66.96,41.44v-9.26h0.72v9.26H66.96z"/>
	<path class="st2" d="M73.98,37.27c-0.12-0.04-0.33-0.14-0.63-0.28c-0.3-0.14-0.59-0.35-0.86-0.61c-0.22-0.22-0.4-0.42-0.53-0.59
		s-0.25-0.37-0.37-0.58c-0.08,0.21-0.2,0.42-0.36,0.64c-0.16,0.22-0.36,0.44-0.59,0.67c-0.26,0.26-0.53,0.47-0.81,0.64
		c-0.28,0.17-0.49,0.29-0.63,0.36l-0.51-0.55c0.23-0.11,0.51-0.27,0.85-0.48c0.33-0.21,0.64-0.46,0.91-0.77
		c0.21-0.23,0.39-0.52,0.54-0.87c0.15-0.35,0.23-0.73,0.23-1.15v-0.25h-1.97v-0.64h4.72v0.64h-1.98v0.25c0,0.41,0.07,0.78,0.21,1.11
		c0.14,0.33,0.33,0.61,0.56,0.86c0.26,0.27,0.56,0.49,0.9,0.66c0.34,0.18,0.59,0.29,0.76,0.35L73.98,37.27z M75.85,41.44v-2.49H70.3
		V38.3h6.28v3.14H75.85z M75.85,37.68v-2.6h-2.02v-0.67h2.02v-2.23h0.73v5.5H75.85z"/>
	<path class="st2" d="M82.05,33.19c0.45,0.46,0.67,1.01,0.67,1.66c0,0.65-0.22,1.2-0.67,1.66c-0.45,0.46-1.02,0.69-1.71,0.69
		c-0.7,0-1.27-0.23-1.72-0.69c-0.44-0.46-0.67-1.01-0.67-1.66c0-0.65,0.22-1.2,0.67-1.66c0.45-0.46,1.02-0.69,1.72-0.69
		C81.03,32.5,81.6,32.73,82.05,33.19z M79.16,33.68c-0.28,0.32-0.42,0.71-0.42,1.17c0,0.46,0.14,0.84,0.42,1.16
		c0.28,0.32,0.67,0.48,1.18,0.48c0.52,0,0.92-0.16,1.19-0.48c0.27-0.32,0.41-0.71,0.41-1.16c0-0.46-0.14-0.85-0.41-1.17
		c-0.27-0.32-0.67-0.48-1.19-0.48C79.83,33.2,79.44,33.36,79.16,33.68z M79.38,41.23v-2.88h0.74v2.24h5.57v0.64H79.38z M84.73,38.9
		v-6.73h0.73v6.73H84.73z"/>
	<path class="st2" d="M89.86,40.09v-0.65h8.71v0.65H89.86z M90.68,37.76v-0.64h1.49l-0.22-2.9h0.74l0.22,2.9h2.59l0.22-2.9h0.73
		l-0.22,2.9h1.5v0.64H90.68z M90.88,33.86v-0.65h6.67v0.65H90.88z"/>
	<path class="st2" d="M98.86,40.28v-0.65h3.94v-1.68h-2.7v-2.82h5.37v-1.52h-5.4v-0.65h6.13v2.81h-5.37v1.53h5.72v0.65h-2.99v1.68
		h4.01v0.65H98.86z"/>
	<path class="st2" d="M107.86,39.96v-0.65h6.09c0.07-0.41,0.19-1.2,0.36-2.37c0.17-1.17,0.26-2.09,0.28-2.77h-5.71v-0.65h6.52
		c-0.02,0.47-0.05,0.94-0.1,1.39c-0.05,0.46-0.11,0.96-0.18,1.51c-0.07,0.58-0.15,1.15-0.24,1.71c-0.09,0.56-0.15,0.96-0.19,1.18
		h1.87v0.65H107.86z"/>
	<path class="st2" d="M120.61,37.14c-0.48,0.04-0.89,0.07-1.23,0.08l-1.91,0.02v-2.61h2.61v-1.27h-2.61V32.7h3.35v2.58h-2.61v1.31
		l1.33-0.01c0.33-0.01,0.71-0.04,1.15-0.08c0.44-0.04,0.76-0.08,0.97-0.11v0.65C121.44,37.07,121.09,37.1,120.61,37.14z
		 M118.61,41.33v-3.06h6.19v3.06H118.61z M124.06,38.9h-4.71v1.79h4.71V38.9z M124.13,37.72v-2.48h-1.26v2.48h-0.72v-5.39h0.72v2.22
		h1.26v-2.38h0.72v5.55H124.13z"/>
	<path class="st2" d="M130.33,39.61c-0.84,0.06-1.94,0.09-3.3,0.09h-1.01v-0.65h1.9v-2.98h0.74v2.98c0.45,0,1.07-0.03,1.87-0.08
		c0.79-0.06,1.38-0.12,1.76-0.18v0.64C131.82,39.49,131.17,39.55,130.33,39.61z M131.3,34.46c-0.04,0.42-0.07,0.8-0.11,1.15
		c-0.07,0.55-0.13,1.02-0.19,1.41c-0.06,0.39-0.1,0.59-0.1,0.61h-0.73c0.01-0.06,0.08-0.56,0.21-1.48c0.13-0.93,0.19-1.66,0.2-2.21
		h-4.04v-0.65h4.85C131.36,33.66,131.33,34.05,131.3,34.46z M133.44,36.2h1.38v0.66h-1.38v4.58h-0.74v-9.26h0.74V36.2z"/>
	<path class="st2" d="M142.89,34.73c-0.29,0.63-0.67,1.16-1.13,1.6c-0.54,0.49-1.03,0.86-1.46,1.09c-0.44,0.24-0.84,0.43-1.22,0.58
		l-0.5-0.52c0.36-0.13,0.76-0.31,1.21-0.55c0.44-0.24,0.88-0.55,1.33-0.93c0.48-0.41,0.82-0.85,1.02-1.3
		c0.2-0.45,0.33-0.86,0.39-1.22h-3.34v-0.64h4.21C143.35,33.48,143.18,34.1,142.89,34.73z M140.15,41.23v-2.86h0.74v2.21h5.61v0.65
		H140.15z M145.48,38.9V36.6h-1.91v-0.65h1.91v-1.46h-1.76v-0.64h1.76v-1.66h0.73v6.73H145.48z"/>
	<path class="st2" d="M152.73,37.27c-0.12-0.04-0.33-0.14-0.63-0.28c-0.3-0.14-0.59-0.35-0.86-0.61c-0.22-0.22-0.4-0.42-0.53-0.59
		c-0.13-0.17-0.25-0.37-0.37-0.58c-0.08,0.21-0.2,0.42-0.36,0.64c-0.16,0.22-0.36,0.44-0.59,0.67c-0.26,0.26-0.53,0.47-0.81,0.64
		c-0.28,0.17-0.49,0.29-0.63,0.36l-0.51-0.55c0.23-0.11,0.51-0.27,0.85-0.48c0.33-0.21,0.64-0.46,0.92-0.77
		c0.21-0.23,0.39-0.52,0.54-0.87c0.15-0.35,0.23-0.73,0.23-1.15v-0.25H148v-0.64h4.72v0.64h-1.98v0.25c0,0.41,0.07,0.78,0.21,1.11
		c0.14,0.33,0.33,0.61,0.56,0.86c0.26,0.27,0.56,0.49,0.9,0.66c0.34,0.18,0.59,0.29,0.76,0.35L152.73,37.27z M154.6,41.44v-2.49
		h-5.55V38.3h6.28v3.14H154.6z M154.6,37.68v-2.6h-2.02v-0.67h2.02v-2.23h0.73v5.5H154.6z"/>
	<path class="st2" d="M160.76,38.76c-0.41,0.62-0.96,0.94-1.65,0.94c-0.69,0-1.23-0.31-1.65-0.93c-0.41-0.62-0.62-1.44-0.62-2.47
		c0-1.03,0.21-1.86,0.62-2.47c0.41-0.62,0.96-0.93,1.65-0.93c0.69,0,1.24,0.31,1.65,0.93c0.41,0.62,0.61,1.44,0.61,2.47
		C161.37,37.32,161.17,38.14,160.76,38.76z M160.25,34.4c-0.26-0.53-0.64-0.79-1.13-0.79c-0.49,0-0.87,0.26-1.13,0.79
		c-0.27,0.53-0.4,1.16-0.4,1.89c0,0.74,0.13,1.38,0.4,1.91c0.27,0.53,0.64,0.79,1.13,0.79c0.49,0,0.87-0.27,1.13-0.8
		c0.26-0.53,0.39-1.17,0.39-1.9C160.64,35.56,160.51,34.93,160.25,34.4z M163.41,41.44v-9.26h0.74v9.26H163.41z"/>
	<path class="st2" d="M173.81,36.55c-0.41,0.03-0.81,0.05-1.2,0.06l-3.63,0.02v-0.63h1.22l-0.12-2.2h0.73l0.11,2.2
		c0.38,0,0.7,0,0.95,0c0.25,0,0.51,0,0.76-0.01l0.11-2.19h0.74l-0.12,2.16c0.27-0.01,0.55-0.03,0.84-0.06
		c0.29-0.02,0.55-0.05,0.77-0.09v0.62C174.6,36.49,174.22,36.53,173.81,36.55z M169.23,33.47v-0.64h5.17v0.64H169.23z M170.46,41.33
		v-2.15h5.33v-0.93h-5.34v-0.6h6.13v2.14h-5.33v0.94h5.57v0.6H170.46z M175.86,37.09v-4.92h0.73v4.92H175.86z"/>
	<path class="st2" d="M177.62,40.3v-0.65h2.39v-2.07h0.76v2.07h2.42v-2.07h0.76v2.07h2.36v0.65H177.62z M184.38,36.69
		c-0.61,0.45-1.41,0.67-2.41,0.67s-1.81-0.22-2.41-0.67s-0.91-1.01-0.91-1.68c0-0.67,0.3-1.23,0.91-1.68s1.41-0.67,2.41-0.67
		c1.01,0,1.82,0.22,2.42,0.67c0.6,0.45,0.9,1.01,0.9,1.68C185.29,35.68,184.99,36.24,184.38,36.69z M183.76,33.77
		c-0.51-0.3-1.11-0.45-1.79-0.45s-1.28,0.15-1.79,0.45c-0.51,0.3-0.77,0.71-0.77,1.24c0,0.51,0.26,0.92,0.77,1.23
		c0.51,0.31,1.11,0.46,1.79,0.46c0.69,0,1.28-0.15,1.8-0.46c0.51-0.31,0.77-0.72,0.77-1.23C184.53,34.48,184.27,34.07,183.76,33.77z
		"/>
	<path class="st2" d="M186.91,35.04v-0.66h5.43v0.66H186.91z M191.28,39.45c-0.43,0.43-0.98,0.64-1.64,0.64
		c-0.68,0-1.23-0.21-1.66-0.64c-0.43-0.42-0.64-0.92-0.64-1.48c0-0.57,0.21-1.06,0.64-1.48c0.43-0.42,0.98-0.63,1.66-0.63
		c0.67,0,1.21,0.21,1.64,0.62c0.43,0.41,0.64,0.91,0.64,1.48C191.92,38.53,191.71,39.02,191.28,39.45z M190.76,36.95
		c-0.27-0.29-0.64-0.43-1.12-0.43c-0.48,0-0.86,0.14-1.13,0.43c-0.27,0.29-0.41,0.63-0.41,1.02c0,0.39,0.14,0.72,0.41,1.02
		c0.27,0.29,0.65,0.44,1.13,0.44c0.48,0,0.86-0.15,1.12-0.44c0.27-0.29,0.4-0.63,0.4-1.02C191.16,37.58,191.03,37.24,190.76,36.95z
		 M188.21,33.39v-0.66h2.83v0.66H188.21z M194.16,36.06h1.4v0.68h-1.4v4.69h-0.74v-9.26h0.74V36.06z"/>
	<path class="st2" d="M201.07,37.61c-0.15-0.08-0.38-0.24-0.71-0.48c-0.33-0.24-0.62-0.5-0.87-0.78c-0.2-0.22-0.38-0.46-0.53-0.69
		c-0.15-0.24-0.26-0.47-0.34-0.68c-0.07,0.22-0.16,0.46-0.3,0.71c-0.13,0.25-0.31,0.51-0.53,0.78c-0.26,0.31-0.53,0.58-0.83,0.81
		s-0.56,0.4-0.79,0.52l-0.52-0.52c0.26-0.13,0.56-0.32,0.9-0.58c0.34-0.26,0.63-0.57,0.89-0.92c0.25-0.34,0.45-0.73,0.59-1.17
		c0.14-0.43,0.21-0.86,0.21-1.28v-0.85h0.77v0.85c0,0.43,0.07,0.86,0.22,1.29c0.15,0.43,0.34,0.79,0.58,1.07
		c0.26,0.3,0.56,0.59,0.92,0.86c0.35,0.27,0.63,0.45,0.84,0.53L201.07,37.61z M197.61,41.23v-2.86h0.73v2.22h5.48v0.64H197.61z
		 M202.89,38.89v-6.72h0.73v6.72H202.89z"/>
	<path class="st2" d="M212.84,37.83v1.99h-0.74v-1.99h-4.11v-0.65h8.71v0.65H212.84z M209.18,36.2v-3.81h0.73v1.12h4.87v-1.12h0.73
		v3.81H209.18z M209.18,41.23v-2.49h0.74v1.84h5.89v0.65H209.18z M214.78,34.13h-4.87v1.43h4.87V34.13z"/>
	<path class="st2" d="M216.99,37.71v-0.65h8.71v0.65H216.99z M223.74,35.51c-0.57,0.36-1.37,0.55-2.41,0.55
		c-1.01,0-1.81-0.18-2.39-0.55c-0.58-0.36-0.88-0.82-0.88-1.38c0-0.55,0.29-1.02,0.87-1.41c0.58-0.39,1.38-0.59,2.39-0.59
		c1.04,0,1.84,0.19,2.41,0.58c0.57,0.39,0.86,0.86,0.86,1.42C224.59,34.69,224.31,35.15,223.74,35.51z M218.18,41.23v-2.67h0.74
		v2.02h5.89v0.65H218.18z M223.12,33.14c-0.47-0.26-1.07-0.39-1.79-0.39c-0.71,0-1.3,0.13-1.77,0.39c-0.47,0.26-0.71,0.59-0.71,0.98
		c0,0.4,0.24,0.71,0.73,0.94c0.49,0.23,1.07,0.34,1.75,0.34c0.71,0,1.3-0.11,1.78-0.34c0.48-0.23,0.72-0.54,0.72-0.94
		C223.82,33.73,223.59,33.4,223.12,33.14z"/>
	<path class="st2" d="M229.36,40.33v-1.06h1.95v-3.13h1.17v3.13h1.05v-3.13h1.17v3.13h3.37v1.06H229.36z M237.11,34.34
		c-0.05,0.51-0.11,0.98-0.18,1.42c-0.1,0.68-0.19,1.23-0.26,1.65c-0.08,0.42-0.12,0.65-0.12,0.67h-1.15
		c0.01-0.06,0.1-0.55,0.25-1.47c0.16-0.92,0.24-1.72,0.26-2.4h-5.62v-1.06h6.9C237.19,33.44,237.16,33.84,237.11,34.34z"/>
	<path class="st2" d="M244.86,37.57v1.06h1.15v2.8h-1.18v-1.73h-5.52v-1.07h1.26v-1.06h-2.21v-1.06h8.71v1.06H244.86z M245.17,35.45
		c-0.63,0.34-1.45,0.51-2.45,0.51c-0.98,0-1.8-0.17-2.44-0.51c-0.64-0.34-0.96-0.81-0.96-1.43c0-0.58,0.32-1.04,0.96-1.38
		c0.64-0.35,1.46-0.52,2.44-0.52c1,0,1.82,0.17,2.45,0.52c0.63,0.34,0.95,0.81,0.95,1.39C246.11,34.63,245.8,35.11,245.17,35.45z
		 M244.19,33.34c-0.43-0.15-0.92-0.23-1.48-0.23c-0.53,0-1.01,0.08-1.45,0.25c-0.44,0.16-0.66,0.39-0.66,0.69
		c0,0.25,0.2,0.45,0.61,0.63c0.41,0.17,0.91,0.26,1.51,0.26c0.6,0,1.1-0.09,1.5-0.26s0.6-0.39,0.6-0.65
		C244.82,33.72,244.61,33.49,244.19,33.34z M243.73,37.57h-2.01v1.06h2.01V37.57z"/>
	<path class="st2" d="M252.46,37.77v1.79h-1.17v-1.79h-3.93v-1.06h8.71v1.06H252.46z M248.45,41.23v-2.6h1.18v1.54h5.65v1.06H248.45
		z M248.45,32.44h6.54v3.42h-6.54V32.44z M253.85,33.5h-4.24v1.3h4.24V33.5z"/>
	<path class="st2" d="M261.65,39.44c-0.6,0.07-1.22,0.11-1.87,0.14c-0.57,0.02-1.2,0.03-1.91,0.03c-0.71,0-1.08-0.01-1.14-0.01
		v-1.08c0.07,0,0.55,0,1.44,0.01c0.9,0,1.65-0.01,2.25-0.04c0.41-0.01,0.88-0.05,1.41-0.11c0.53-0.06,0.95-0.11,1.24-0.16v1
		C262.72,39.3,262.25,39.38,261.65,39.44z M261.47,33.4c0.48,0.47,0.72,1.03,0.72,1.68c0,0.66-0.24,1.22-0.72,1.69
		c-0.48,0.47-1.09,0.71-1.84,0.71c-0.75,0-1.36-0.24-1.83-0.71c-0.47-0.47-0.71-1.03-0.71-1.69c0-0.65,0.24-1.21,0.71-1.68
		c0.48-0.47,1.08-0.71,1.83-0.71C260.38,32.69,260.99,32.93,261.47,33.4z M260.64,34.14c-0.24-0.26-0.57-0.39-1.01-0.39
		c-0.43,0-0.76,0.13-1,0.39c-0.24,0.26-0.36,0.57-0.36,0.94s0.12,0.68,0.36,0.94c0.24,0.26,0.57,0.39,1,0.39
		c0.43,0,0.77-0.13,1.01-0.39c0.24-0.26,0.36-0.58,0.36-0.94S260.88,34.4,260.64,34.14z M263.38,41.44v-9.26h1.15v9.26H263.38z"/>
	<path class="st2" d="M270.92,41.02v-4.4h-1.17v0.03c-0.03,0.98-0.22,1.74-0.59,2.3c-0.37,0.56-0.83,0.84-1.4,0.84
		c-0.57,0-1.05-0.3-1.42-0.9c-0.38-0.6-0.56-1.42-0.56-2.46c0-1.05,0.19-1.87,0.56-2.47s0.85-0.9,1.42-0.9
		c0.53,0,0.98,0.25,1.34,0.76c0.36,0.51,0.57,1.2,0.63,2.08h1.19v-3.53h0.72v8.63H270.92z M268.68,34.53
		c-0.22-0.51-0.52-0.77-0.91-0.77c-0.39,0-0.69,0.26-0.91,0.77c-0.22,0.51-0.33,1.14-0.33,1.89c0,0.76,0.11,1.39,0.33,1.9
		c0.22,0.51,0.53,0.76,0.91,0.76c0.38,0,0.68-0.26,0.91-0.77s0.33-1.14,0.33-1.89C269.01,35.68,268.9,35.05,268.68,34.53z
		 M272.68,41.44v-9.26h0.72v9.26H272.68z"/>
	<path class="st2" d="M282.55,36.4c-0.54,0.07-1.1,0.12-1.7,0.13c-0.51,0.02-1.05,0.03-1.61,0.03c-0.56,0-0.85,0-0.89,0v-3.96h0.73
		v3.31l1.78-0.03c0.55-0.01,1.09-0.05,1.64-0.12c0.54-0.07,0.98-0.14,1.3-0.21v0.64C283.51,36.26,283.09,36.33,282.55,36.4z
		 M279.3,41.33v-3.46h5.9v3.46H279.3z M284.44,38.52h-4.38v2.16h4.38V38.52z M285.18,34.22h1.31v0.66h-1.31v2.51h-0.73v-5.21h0.73
		V34.22z"/>
	<path class="st2" d="M291.45,35.29c-0.21,0.75-0.53,1.42-0.97,2.03c-0.42,0.6-0.86,1.09-1.31,1.48c-0.45,0.39-0.93,0.72-1.42,0.99
		l-0.56-0.47c0.44-0.23,0.89-0.54,1.37-0.92c0.48-0.38,0.89-0.81,1.23-1.3c0.39-0.56,0.67-1.13,0.86-1.71
		c0.18-0.58,0.29-1.06,0.34-1.46h-3.25v-0.64h4.09C291.79,33.87,291.66,34.54,291.45,35.29z M293.94,41.44v-3.56h-1.92v-0.66h1.92
		v-1.8h-1.77v-0.66h1.77v-2.58h0.74v9.26H293.94z"/>
	<path class="st2" d="M303.84,38.07v3.37h-0.75v-3.37h-3.98v-0.65h8.71v0.65H303.84z M306.74,36.54c-0.19-0.05-0.48-0.15-0.87-0.31
		c-0.39-0.15-0.76-0.35-1.12-0.6c-0.32-0.22-0.59-0.47-0.83-0.74c-0.23-0.27-0.39-0.48-0.46-0.64c-0.07,0.15-0.23,0.37-0.46,0.64
		c-0.23,0.27-0.51,0.52-0.83,0.74c-0.36,0.25-0.73,0.45-1.12,0.6c-0.39,0.15-0.68,0.26-0.87,0.31l-0.49-0.56
		c0.24-0.06,0.55-0.16,0.94-0.31s0.77-0.35,1.16-0.62c0.31-0.22,0.59-0.49,0.83-0.8c0.24-0.31,0.39-0.59,0.44-0.84
		c0.01-0.01,0.01-0.04,0.01-0.07s0-0.06,0.01-0.06h-2.87v-0.66h6.51v0.66h-2.87c0.01,0.01,0.01,0.03,0.01,0.06s0,0.06,0.01,0.07
		c0.05,0.25,0.19,0.53,0.44,0.84s0.52,0.58,0.83,0.8c0.38,0.27,0.77,0.47,1.16,0.62c0.39,0.15,0.7,0.25,0.94,0.31L306.74,36.54z"/>
	<path class="st2" d="M313.72,39.58c-0.19-0.13-0.43-0.3-0.71-0.52c-0.28-0.22-0.56-0.5-0.82-0.83c-0.26-0.34-0.47-0.68-0.63-1
		c-0.16-0.32-0.27-0.58-0.33-0.78c-0.05,0.2-0.15,0.46-0.3,0.78c-0.15,0.33-0.37,0.69-0.66,1.08c-0.22,0.3-0.48,0.58-0.76,0.84
		c-0.28,0.26-0.54,0.46-0.77,0.63l-0.59-0.53c0.33-0.2,0.67-0.48,1.02-0.82c0.35-0.34,0.65-0.71,0.9-1.12
		c0.26-0.43,0.46-0.9,0.58-1.43c0.13-0.53,0.19-1.05,0.19-1.56v-1.61h0.76v1.61c0,0.51,0.06,1.02,0.19,1.53
		c0.13,0.51,0.34,0.99,0.64,1.45c0.26,0.4,0.56,0.75,0.9,1.04c0.34,0.29,0.64,0.51,0.91,0.67L313.72,39.58z M315.42,41.44v-9.26
		h0.74v9.26H315.42z"/>
	<path class="st2" d="M321.79,35.29c-0.21,0.75-0.53,1.42-0.96,2.03c-0.43,0.6-0.87,1.09-1.32,1.48c-0.45,0.39-0.92,0.72-1.41,0.99
		l-0.57-0.47c0.44-0.23,0.9-0.54,1.38-0.92c0.48-0.38,0.88-0.81,1.23-1.3c0.4-0.56,0.68-1.13,0.86-1.71
		c0.18-0.58,0.29-1.06,0.34-1.46h-3.24v-0.64h4.09C322.12,33.87,322,34.54,321.79,35.29z M324.27,41.44v-4.76h-1.99v-0.66h1.99
		v-3.84h0.74v9.26H324.27z"/>
	<path class="st2" d="M330.87,38.99c-0.56,0.08-1.1,0.13-1.63,0.15l-2.36,0.03v-6.1h0.74v5.43l1.65-0.02
		c0.46-0.01,0.97-0.06,1.54-0.14c0.57-0.08,1.02-0.15,1.35-0.22v0.66C331.85,38.83,331.42,38.9,330.87,38.99z M333.54,36.48v4.96
		h-0.74v-9.26h0.74v3.63h1.41v0.67H333.54z"/>
	<path class="st2" d="M342.67,38.94c-0.49,0.51-1,0.76-1.53,0.76c-0.52,0-1.03-0.25-1.52-0.76c-0.49-0.51-0.74-1.39-0.74-2.64
		c0-1.3,0.25-2.19,0.76-2.67c0.51-0.48,1.01-0.73,1.5-0.73c0.51,0,1.01,0.25,1.51,0.74c0.5,0.49,0.75,1.38,0.75,2.66
		C343.41,37.55,343.16,38.43,342.67,38.94z M342.28,34.4c-0.26-0.53-0.63-0.79-1.13-0.79c-0.49,0-0.87,0.26-1.14,0.79
		c-0.26,0.53-0.4,1.16-0.4,1.89c0,0.74,0.13,1.38,0.4,1.91c0.26,0.53,0.64,0.79,1.14,0.79c0.49,0,0.87-0.27,1.13-0.8
		c0.26-0.53,0.39-1.17,0.39-1.9C342.66,35.56,342.53,34.93,342.28,34.4z M345.97,36.1h1.42v0.67h-1.42v4.66h-0.74v-9.26h0.74V36.1z"
		/>
	<path class="st2" d="M351.34,39.4c-0.44,0.05-0.86,0.08-1.25,0.09l-1.97,0.02V36h2.51v-2.11h-2.52v-0.66h3.26v3.43h-2.51v2.19
		l1.4-0.02c0.32-0.01,0.69-0.03,1.11-0.07c0.42-0.04,0.73-0.08,0.93-0.11v0.64C352.09,39.32,351.77,39.36,351.34,39.4z M354.7,41.44
		v-4.9h-1.26v4.48h-0.72v-8.63h0.72v3.46h1.26v-3.67h0.72v9.26H354.7z"/>
	<path class="st2" d="M366.75,33.36v-1.19h1.15v6.69h-1.15v-2.6h-2.11c-0.22,0.28-0.49,0.51-0.83,0.68
		c-0.34,0.17-0.71,0.26-1.13,0.26c-0.71,0-1.29-0.23-1.74-0.69c-0.46-0.46-0.68-1.02-0.68-1.67c0-0.65,0.23-1.21,0.68-1.68
		c0.46-0.47,1.04-0.7,1.74-0.7c0.41,0,0.78,0.08,1.11,0.25c0.33,0.16,0.6,0.38,0.82,0.66H366.75z M361.76,33.91
		c-0.21,0.26-0.32,0.57-0.32,0.93c0,0.35,0.11,0.66,0.32,0.92s0.52,0.39,0.93,0.39c0.41,0,0.72-0.13,0.93-0.39
		c0.21-0.26,0.32-0.56,0.32-0.92c0-0.36-0.11-0.67-0.32-0.93c-0.21-0.26-0.53-0.39-0.93-0.39
		C362.29,33.52,361.98,33.65,361.76,33.91z M361.52,41.23v-2.97h1.19v1.91h5.39v1.06H361.52z M366.75,35.24v-0.83h-1.67
		c0.01,0.07,0.02,0.14,0.03,0.21c0.01,0.07,0.01,0.14,0.01,0.22c0,0.07,0,0.14,0,0.21c0,0.07-0.01,0.13-0.02,0.19H366.75z"/>
	<path class="st2" d="M373.21,37.54c-0.63,0.05-1.25,0.08-1.84,0.08l-2.02,0.01v-3.03h3.25v-0.95h-3.25v-1.04h4.39v3.01h-3.24v0.98
		l1.35-0.01c0.42-0.01,0.92-0.03,1.48-0.08c0.57-0.05,1.01-0.09,1.33-0.13v1.01C374.32,37.44,373.84,37.49,373.21,37.54z
		 M375.32,41.44v-1.93h-5.26v-1.07h6.41v3H375.32z M376.47,35.67v2.34h-1.15v-5.83h1.15v2.45h1.23v1.04H376.47z"/>
	<path class="st2" d="M383.17,39.88c-0.16-0.1-0.34-0.23-0.55-0.38c-0.21-0.16-0.43-0.36-0.66-0.59c-0.17-0.18-0.33-0.38-0.48-0.58
		c-0.15-0.21-0.27-0.4-0.36-0.58c-0.06,0.14-0.16,0.33-0.31,0.56c-0.15,0.23-0.33,0.47-0.56,0.71c-0.2,0.22-0.41,0.42-0.62,0.59
		c-0.21,0.18-0.41,0.33-0.61,0.45l-0.93-0.85c0.23-0.13,0.51-0.33,0.85-0.61c0.33-0.27,0.62-0.57,0.86-0.9
		c0.23-0.32,0.4-0.66,0.51-1.02s0.17-0.68,0.17-0.96v-0.23h-1.86v-1.05h4.98v1.05h-1.85v0.23c0,0.3,0.07,0.65,0.21,1.04
		c0.14,0.39,0.33,0.73,0.56,1.02c0.23,0.27,0.46,0.51,0.7,0.71c0.23,0.2,0.47,0.35,0.72,0.47L383.17,39.88z M379.7,33.59v-1.03h2.86
		v1.03H379.7z M384.91,41.44v-4.28h-1.71V36.1h1.71v-3.93h1.15v9.26H384.91z"/>
	<path class="st2" d="M386.87,40.28v-0.65h3.94v-1.68h-2.7v-2.82h5.37v-1.52h-5.4v-0.65h6.13v2.81h-5.37v1.53h5.72v0.65h-2.99v1.68
		h4.01v0.65H386.87z"/>
	<path class="st2" d="M404.08,37.69v2.06h-0.74v-2.06h-4.11v-0.65h8.71v0.65H404.08z M400.42,35.88v-3.35h6.34v3.35H400.42z
		 M400.42,41.23V38.7h0.74v1.87h5.89v0.65H400.42z M406.02,33.19h-4.87v2.04h4.87V33.19z"/>
	<path class="st2" d="M413.58,39.37c-0.78,0.04-1.46,0.07-2.06,0.08l-2.84,0.01v-0.66l2.88-0.01c0.65-0.01,1.32-0.04,2.03-0.08
		c0.71-0.04,1.25-0.09,1.63-0.14v0.67C414.91,39.29,414.36,39.33,413.58,39.37z M413.38,36.65c-0.45,0.45-1.03,0.67-1.74,0.67
		c-0.71,0-1.28-0.22-1.74-0.67s-0.68-0.98-0.68-1.6c0-0.62,0.23-1.16,0.68-1.6s1.03-0.66,1.74-0.66c0.71,0,1.28,0.22,1.74,0.66
		c0.45,0.44,0.68,0.98,0.68,1.6C414.06,35.67,413.83,36.2,413.38,36.65z M412.86,33.92c-0.28-0.32-0.69-0.47-1.22-0.47
		c-0.53,0-0.93,0.16-1.22,0.47s-0.43,0.69-0.43,1.13c0,0.44,0.14,0.81,0.43,1.13s0.69,0.47,1.22,0.47c0.53,0,0.93-0.16,1.22-0.47
		s0.43-0.69,0.43-1.13C413.28,34.61,413.14,34.24,412.86,33.92z M415.57,41.44v-9.26h0.74v9.26H415.57z"/>
	<path class="st2" d="M417.53,35.04v-0.66h5.43v0.66H417.53z M421.9,39.45c-0.43,0.43-0.98,0.64-1.64,0.64
		c-0.68,0-1.23-0.21-1.66-0.64c-0.43-0.42-0.64-0.92-0.64-1.48c0-0.57,0.21-1.06,0.64-1.48c0.43-0.42,0.98-0.63,1.66-0.63
		c0.67,0,1.21,0.21,1.64,0.62c0.43,0.41,0.64,0.91,0.64,1.48C422.55,38.53,422.33,39.02,421.9,39.45z M421.38,36.95
		c-0.27-0.29-0.64-0.43-1.12-0.43c-0.48,0-0.86,0.14-1.13,0.43c-0.27,0.29-0.41,0.63-0.41,1.02c0,0.39,0.14,0.72,0.41,1.02
		c0.27,0.29,0.65,0.44,1.13,0.44c0.48,0,0.86-0.15,1.12-0.44c0.27-0.29,0.4-0.63,0.4-1.02C421.78,37.58,421.65,37.24,421.38,36.95z
		 M418.84,33.39v-0.66h2.83v0.66H418.84z M424.78,36.06h1.4v0.68h-1.4v4.69h-0.74v-9.26h0.74V36.06z"/>
	<path class="st2" d="M431.86,39.58c-0.19-0.13-0.43-0.3-0.71-0.52c-0.28-0.22-0.56-0.5-0.82-0.83c-0.26-0.34-0.47-0.68-0.63-1
		c-0.16-0.32-0.27-0.58-0.33-0.78c-0.05,0.2-0.15,0.46-0.3,0.78c-0.15,0.33-0.37,0.69-0.66,1.08c-0.22,0.3-0.48,0.58-0.76,0.84
		c-0.28,0.26-0.54,0.46-0.77,0.63l-0.59-0.53c0.33-0.2,0.67-0.48,1.02-0.82c0.35-0.34,0.65-0.71,0.9-1.12
		c0.26-0.43,0.46-0.9,0.58-1.43c0.13-0.53,0.19-1.05,0.19-1.56v-1.61h0.76v1.61c0,0.51,0.06,1.02,0.19,1.53
		c0.13,0.51,0.34,0.99,0.64,1.45c0.26,0.4,0.56,0.75,0.9,1.04c0.34,0.29,0.64,0.51,0.91,0.67L431.86,39.58z M433.55,41.44v-9.26
		h0.74v9.26H433.55z"/>
	<path class="st2" d="M439.97,35.29c-0.21,0.75-0.53,1.42-0.97,2.03c-0.42,0.6-0.86,1.09-1.31,1.48c-0.45,0.39-0.92,0.72-1.42,0.99
		l-0.56-0.47c0.43-0.23,0.89-0.54,1.37-0.92c0.48-0.38,0.89-0.81,1.23-1.3c0.39-0.56,0.67-1.13,0.86-1.71
		c0.18-0.58,0.29-1.06,0.34-1.46h-3.27v-0.64h4.12C440.31,33.87,440.18,34.54,439.97,35.29z M442.48,41.44v-9.26h0.74v9.26H442.48z"
		/>
	<path class="st2" d="M448.26,39.44v-6.37h0.73v2.31h2.79v-2.31h0.73v6.37H448.26z M451.78,36.04h-2.79v2.75h2.79V36.04z
		 M455.02,36.55v4.88h-0.74v-9.26h0.74v3.69h1.42v0.68H455.02z"/>
	<path class="st2" d="M461.43,36.91c-0.53,0.05-1.05,0.08-1.56,0.09l-2.69,0.03v-2.43h3.5v-1.3h-3.5v-0.64h4.23v2.58h-3.5v1.15
		l2.17-0.02c0.44-0.01,0.91-0.04,1.41-0.09c0.5-0.05,0.9-0.09,1.19-0.14v0.64C462.38,36.82,461.96,36.86,461.43,36.91z
		 M458.15,41.33v-3.49h0.73v1.01h4.43v-1.01h0.73v3.49H458.15z M463.32,39.47h-4.43v1.23h4.43V39.47z M464.05,34.97v2.38h-0.73
		v-5.18h0.73v2.14h1.3v0.66H464.05z"/>
	<path class="st2" d="M470.72,38.98c-0.56,0.09-1.1,0.14-1.63,0.15c-0.51,0.02-1.05,0.03-1.63,0.03c-0.58,0-0.89,0-0.93,0v-6.1h0.74
		v5.43l1.85-0.02c0.46-0.01,0.97-0.06,1.54-0.14c0.57-0.08,1.02-0.15,1.35-0.22v0.65C471.71,38.82,471.28,38.89,470.72,38.98z
		 M472.66,41.44v-9.26h0.74v9.26H472.66z"/>
	<path class="st2" d="M479.43,39.12c-0.52,0.06-1.08,0.1-1.66,0.11c-0.54,0.02-1.08,0.03-1.61,0.03c-0.53,0-0.81,0-0.85,0v-5.95
		h4.25v0.65h-3.52v4.64l1.94-0.02c0.45-0.01,0.93-0.05,1.45-0.11c0.52-0.06,0.88-0.11,1.09-0.15v0.64
		C480.32,39.01,479.95,39.06,479.43,39.12z M481.91,36.62v4.82h-0.74v-9.26h0.74v3.77h1.4v0.67H481.91z"/>
	<path class="st2" d="M483.99,41.1v-1.14h1.11v1.14H483.99z"/>
	<path class="st2" d="M54.99,54.07c-0.41,0.62-0.96,0.94-1.65,0.94c-0.69,0-1.23-0.31-1.65-0.93c-0.41-0.62-0.62-1.44-0.62-2.47
		c0-1.03,0.21-1.86,0.62-2.47c0.41-0.62,0.96-0.93,1.65-0.93c0.69,0,1.24,0.31,1.65,0.93c0.41,0.62,0.61,1.44,0.61,2.47
		C55.61,52.63,55.4,53.45,54.99,54.07z M54.48,49.71c-0.26-0.53-0.64-0.79-1.13-0.79c-0.49,0-0.87,0.26-1.13,0.79
		c-0.27,0.53-0.4,1.16-0.4,1.89c0,0.74,0.13,1.38,0.4,1.91c0.27,0.53,0.64,0.79,1.13,0.79c0.49,0,0.87-0.27,1.13-0.8
		c0.26-0.53,0.39-1.17,0.39-1.9C54.87,50.87,54.74,50.24,54.48,49.71z M57.64,56.75v-9.26h0.74v9.26H57.64z"/>
	<path class="st2" d="M64.86,56.33v-4.54h-1.27v2.85h-3.4v-5.96h3.4v2.41h1.27v-3.4h0.72v8.63H64.86z M62.86,49.35h-1.94v4.63h1.94
		V49.35z M66.7,56.75v-9.26h0.72v9.26H66.7z"/>
	<path class="st2" d="M72.95,48.38c0.45,0.4,0.67,0.91,0.67,1.52c0,0.62-0.22,1.13-0.67,1.53c-0.45,0.4-1,0.61-1.64,0.61
		c-0.64,0-1.19-0.2-1.64-0.61c-0.45-0.4-0.68-0.91-0.68-1.53c0-0.62,0.22-1.13,0.67-1.53c0.45-0.4,1-0.6,1.64-0.6
		C71.95,47.78,72.5,47.98,72.95,48.38z M72.43,48.89c-0.28-0.28-0.65-0.42-1.12-0.42c-0.46,0-0.83,0.14-1.12,0.42
		c-0.28,0.28-0.43,0.62-0.43,1.01s0.14,0.73,0.43,1.01c0.29,0.28,0.66,0.42,1.11,0.42c0.46,0,0.83-0.14,1.12-0.42
		c0.28-0.28,0.43-0.62,0.43-1.01C72.85,49.51,72.71,49.17,72.43,48.89z M70.36,56.64v-2.2h5.35v-1h-5.35v-0.6h6.11v2.2h-5.31v1h5.53
		v0.6H70.36z M75.73,52.38v-4.89h0.73v4.89H75.73z"/>
	<path class="st2" d="M82.04,50.96v3.47c0,0.14,0,0.26,0.01,0.35c0,0.09,0.05,0.18,0.13,0.26c0.07,0.07,0.16,0.11,0.28,0.13
		c0.11,0.01,0.2,0.02,0.28,0.02v0.58H82.2c-0.15,0-0.27-0.04-0.39-0.12c-0.11-0.08-0.2-0.17-0.28-0.28
		c-0.07-0.11-0.12-0.22-0.14-0.34s-0.03-0.29-0.03-0.51v-3.56h-0.63v-0.58h0.63v-1.66h0.67v1.66h0.73v0.58H82.04z"/>
	<path class="st2" d="M87.23,55.76v-3.37c0-0.48-0.12-0.85-0.36-1.1c-0.24-0.25-0.57-0.38-0.98-0.38c-0.47,0-0.86,0.16-1.17,0.49
		c-0.31,0.33-0.47,0.68-0.47,1.04v3.32h-0.67v-7.39h0.67v2.76c0.22-0.27,0.49-0.49,0.81-0.68c0.32-0.19,0.72-0.27,1.19-0.23
		c0.53,0.03,0.94,0.24,1.23,0.63c0.29,0.39,0.44,0.82,0.44,1.29v3.62H87.23z"/>
	<path class="st2" d="M89.22,53.26c0.01,0.62,0.2,1.12,0.56,1.5c0.36,0.38,0.76,0.57,1.18,0.57c0.45,0,0.79-0.1,1.04-0.31
		c0.24-0.21,0.41-0.44,0.48-0.69h0.75c-0.13,0.36-0.36,0.73-0.71,1.08c-0.35,0.36-0.87,0.54-1.55,0.54c-0.73,0-1.33-0.28-1.78-0.83
		c-0.46-0.55-0.68-1.24-0.68-2.04c0-0.81,0.22-1.5,0.67-2.05c0.45-0.55,1.04-0.83,1.78-0.83c0.68,0,1.27,0.26,1.76,0.77
		c0.49,0.51,0.73,1.27,0.71,2.27L89.22,53.26z M92.71,52.67c-0.02-0.55-0.2-1-0.53-1.34c-0.33-0.34-0.74-0.51-1.21-0.51
		c-0.46,0-0.86,0.17-1.18,0.5c-0.33,0.33-0.51,0.78-0.54,1.34H92.71z"/>
	<path class="st2" d="M99.13,55.76H98.4l-1.21-4.16h-0.06l-1.2,4.16H95.2l-1.55-5.36h0.67l1.21,4.29h0.06l1.21-4.29h0.74l1.21,4.29
		h0.06l1.22-4.29h0.65L99.13,55.76z"/>
	<path class="st2" d="M104.93,55.76v-3.37c0-0.48-0.12-0.85-0.36-1.1c-0.24-0.25-0.57-0.38-0.98-0.38c-0.47,0-0.86,0.16-1.17,0.49
		c-0.31,0.33-0.47,0.68-0.47,1.04v3.32h-0.67v-7.39h0.67v2.76c0.22-0.27,0.49-0.49,0.81-0.68c0.32-0.19,0.72-0.27,1.19-0.23
		c0.53,0.03,0.94,0.24,1.23,0.63c0.29,0.39,0.44,0.82,0.44,1.29v3.62H104.93z"/>
	<path class="st2" d="M108.37,56.43c-0.06,0.17-0.13,0.32-0.22,0.46c-0.09,0.14-0.2,0.24-0.32,0.32c-0.12,0.07-0.23,0.12-0.35,0.14
		c-0.11,0.02-0.24,0.03-0.4,0.03h-0.27v-0.6l0.37,0.01c0.15,0.01,0.27-0.04,0.37-0.14c0.09-0.1,0.16-0.21,0.21-0.35l0.29-0.71
		l-2.08-5.19h0.69l1.74,4.29l1.7-4.29h0.68L108.37,56.43z"/>
	<path class="st2" d="M118.59,49.27c0.33,0.41,0.55,0.88,0.66,1.4c0.05,0.22,0.08,0.54,0.09,0.94c0.01,0.4-0.08,0.82-0.28,1.24
		c-0.19,0.4-0.39,0.71-0.61,0.94c-0.22,0.23-0.42,0.39-0.59,0.48c-0.17,0.08-0.37,0.15-0.6,0.21c-0.24,0.06-0.51,0.03-0.82-0.08
		c-0.13-0.06-0.24-0.14-0.33-0.26c-0.09-0.12-0.16-0.23-0.21-0.34c-0.28,0.27-0.55,0.46-0.8,0.56c-0.25,0.1-0.47,0.14-0.66,0.14
		c-0.13-0.01-0.32-0.06-0.59-0.16s-0.48-0.27-0.64-0.51c-0.13-0.2-0.22-0.42-0.26-0.66c-0.04-0.24-0.04-0.47,0-0.68
		c0.05-0.25,0.13-0.54,0.25-0.89c0.12-0.35,0.35-0.69,0.7-1.01c0.28-0.26,0.56-0.44,0.86-0.55c0.29-0.11,0.58-0.13,0.87-0.06
		c0.22,0.05,0.41,0.14,0.56,0.28c0.16,0.14,0.28,0.29,0.37,0.45l0.16-0.65l0.62,0.01l-0.8,3.09c-0.04,0.18-0.04,0.32,0.01,0.45
		c0.05,0.12,0.14,0.21,0.28,0.27c0.1,0.04,0.22,0.04,0.36,0c0.14-0.04,0.26-0.08,0.36-0.13c0.19-0.1,0.37-0.25,0.53-0.46
		c0.16-0.21,0.29-0.41,0.38-0.61c0.14-0.33,0.22-0.67,0.24-1.02c0.02-0.35-0.01-0.69-0.09-1.04c-0.08-0.29-0.24-0.6-0.5-0.93
		c-0.25-0.33-0.52-0.59-0.81-0.79c-0.44-0.29-0.93-0.46-1.48-0.52c-0.55-0.06-1.03-0.04-1.45,0.06c-0.39,0.09-0.77,0.29-1.14,0.58
		c-0.37,0.3-0.69,0.63-0.95,1c-0.37,0.53-0.59,1.02-0.67,1.48c-0.08,0.46-0.12,0.81-0.12,1.06c0,0.42,0.08,0.81,0.24,1.17
		c0.16,0.36,0.33,0.63,0.49,0.83c0.23,0.26,0.5,0.48,0.79,0.66c0.3,0.18,0.66,0.33,1.08,0.45c0.49,0.13,0.99,0.15,1.5,0.08
		c0.51-0.07,0.98-0.19,1.4-0.36l0.2,0.57c-0.4,0.22-0.89,0.36-1.48,0.42c-0.59,0.05-1.08,0.05-1.47-0.01
		c-0.34-0.04-0.75-0.15-1.23-0.34c-0.47-0.18-0.94-0.56-1.4-1.14c-0.23-0.29-0.42-0.64-0.56-1.05c-0.15-0.41-0.22-0.79-0.24-1.14
		c-0.01-0.56,0.05-1.08,0.19-1.55c0.14-0.47,0.35-0.92,0.63-1.35c0.24-0.36,0.58-0.74,1.01-1.13c0.43-0.39,0.91-0.66,1.45-0.82
		c0.53-0.15,1.1-0.2,1.71-0.14c0.61,0.06,1.16,0.24,1.64,0.55C117.87,48.52,118.26,48.86,118.59,49.27z M115.99,52.6
		c0.17-0.41,0.25-0.78,0.24-1.12c-0.01-0.18-0.06-0.37-0.16-0.55c-0.1-0.19-0.29-0.32-0.57-0.41c-0.24-0.07-0.46-0.05-0.68,0.06
		c-0.21,0.11-0.41,0.27-0.58,0.46c-0.17,0.19-0.32,0.42-0.43,0.69c-0.12,0.27-0.2,0.55-0.23,0.84c-0.03,0.33,0.04,0.61,0.19,0.85
		c0.15,0.24,0.36,0.38,0.61,0.44c0.14,0.03,0.3,0.01,0.47-0.05c0.18-0.06,0.34-0.15,0.47-0.26C115.6,53.32,115.82,53.01,115.99,52.6
		z"/>
	<path class="st2" d="M120.65,50.96v3.47c0,0.14,0,0.26,0.01,0.35c0,0.09,0.05,0.18,0.13,0.26c0.07,0.07,0.17,0.11,0.28,0.13
		c0.11,0.01,0.2,0.02,0.28,0.02v0.58h-0.53c-0.15,0-0.27-0.04-0.39-0.12c-0.11-0.08-0.2-0.17-0.28-0.28
		c-0.07-0.11-0.12-0.22-0.14-0.34s-0.03-0.29-0.03-0.51v-3.56h-0.63v-0.58h0.63v-1.66h0.67v1.66h0.73v0.58H120.65z"/>
	<path class="st2" d="M125.83,55.76v-3.37c0-0.48-0.12-0.85-0.36-1.1c-0.24-0.25-0.57-0.38-0.98-0.38c-0.47,0-0.86,0.16-1.17,0.49
		c-0.31,0.33-0.47,0.68-0.47,1.04v3.32h-0.67v-7.39h0.67v2.76c0.22-0.27,0.49-0.49,0.81-0.68c0.32-0.19,0.72-0.27,1.19-0.23
		c0.53,0.03,0.94,0.24,1.23,0.63c0.29,0.39,0.44,0.82,0.44,1.29v3.62H125.83z"/>
	<path class="st2" d="M127.83,53.26c0.01,0.62,0.2,1.12,0.56,1.5c0.36,0.38,0.76,0.57,1.18,0.57c0.45,0,0.79-0.1,1.04-0.31
		s0.41-0.44,0.48-0.69h0.75c-0.13,0.36-0.36,0.73-0.71,1.08c-0.35,0.36-0.87,0.54-1.55,0.54c-0.73,0-1.33-0.28-1.78-0.83
		c-0.46-0.55-0.68-1.24-0.68-2.04c0-0.81,0.22-1.5,0.67-2.05c0.45-0.55,1.04-0.83,1.78-0.83c0.68,0,1.27,0.26,1.76,0.77
		c0.49,0.51,0.73,1.27,0.71,2.27L127.83,53.26z M131.31,52.67c-0.02-0.55-0.2-1-0.53-1.34c-0.33-0.34-0.74-0.51-1.21-0.51
		c-0.46,0-0.86,0.17-1.18,0.5c-0.33,0.33-0.51,0.78-0.54,1.34H131.31z"/>
	<path class="st2" d="M137.73,55.76H137l-1.21-4.16h-0.06l-1.2,4.16h-0.73l-1.55-5.36h0.67l1.21,4.29h0.06l1.21-4.29h0.74l1.21,4.29
		h0.06l1.22-4.29h0.65L137.73,55.76z"/>
	<path class="st2" d="M143.53,55.76v-3.37c0-0.48-0.12-0.85-0.36-1.1c-0.24-0.25-0.57-0.38-0.98-0.38c-0.47,0-0.86,0.16-1.17,0.49
		c-0.31,0.33-0.47,0.68-0.47,1.04v3.32h-0.67v-7.39h0.67v2.76c0.22-0.27,0.49-0.49,0.81-0.68c0.32-0.19,0.72-0.27,1.19-0.23
		c0.53,0.03,0.94,0.24,1.23,0.63c0.29,0.39,0.44,0.82,0.44,1.29v3.62H143.53z"/>
	<path class="st2" d="M146.97,56.43c-0.06,0.17-0.13,0.32-0.22,0.46c-0.09,0.14-0.2,0.24-0.32,0.32c-0.12,0.07-0.23,0.12-0.35,0.14
		c-0.11,0.02-0.24,0.03-0.4,0.03h-0.27v-0.6l0.37,0.01c0.15,0.01,0.27-0.04,0.37-0.14c0.09-0.1,0.16-0.21,0.21-0.35l0.29-0.71
		l-2.08-5.19h0.69L147,54.7l1.7-4.29h0.68L146.97,56.43z"/>
	<path class="st2" d="M149.92,56.41v-1.14h1.11v1.14H149.92z"/>
	<path class="st2" d="M156.29,55.76l-2.3-2.95c-0.07,0.06-0.21,0.19-0.44,0.39c-0.23,0.21-0.38,0.35-0.47,0.43v2.12h-0.67v-7.38
		h0.67v4.45l2.65-2.49h0.86l-2.13,2.06l2.63,3.37H156.29z"/>
	<path class="st2" d="M160.13,50.94c-0.14,0-0.31,0.01-0.49,0.04c-0.18,0.02-0.35,0.08-0.5,0.17c-0.3,0.18-0.52,0.4-0.67,0.68
		c-0.15,0.28-0.22,0.65-0.22,1.12v2.8h-0.67v-5.34h0.67v0.83l0.06,0.02c0.1-0.18,0.22-0.34,0.37-0.48c0.15-0.14,0.31-0.25,0.49-0.34
		c0.16-0.08,0.34-0.14,0.52-0.17c0.19-0.03,0.33-0.05,0.44-0.05V50.94z"/>
	<path class="st2" d="M167.56,57.05h-0.68l3.37-9.61h0.7L167.56,57.05z"/>
	<path class="st2" d="M185.02,54.21v-2.86h-2.34c-0.2,0.32-0.48,0.58-0.83,0.77c-0.35,0.19-0.75,0.28-1.19,0.28
		c-0.7,0-1.27-0.22-1.72-0.67c-0.45-0.45-0.67-0.99-0.67-1.63c0-0.64,0.22-1.18,0.67-1.63s1.02-0.67,1.72-0.67
		c0.42,0,0.79,0.09,1.12,0.26c0.33,0.17,0.61,0.4,0.82,0.68h2.41v-1.25h0.73v6.73H185.02z M179.47,48.97
		c-0.28,0.31-0.42,0.69-0.42,1.13s0.14,0.82,0.42,1.13c0.28,0.31,0.67,0.47,1.19,0.47c0.52,0,0.92-0.16,1.19-0.47
		c0.27-0.31,0.41-0.69,0.41-1.13s-0.14-0.82-0.41-1.13c-0.27-0.31-0.67-0.47-1.19-0.47C180.15,48.51,179.75,48.66,179.47,48.97z
		 M179.65,56.54V53.6h0.74v2.29h5.59v0.64H179.65z M185.02,49.39h-2.09c0.03,0.11,0.06,0.23,0.08,0.35
		c0.02,0.12,0.03,0.24,0.03,0.37c0,0.11-0.01,0.21-0.02,0.31c-0.01,0.1-0.04,0.2-0.07,0.29h2.07V49.39z"/>
	<path class="st2" d="M191.58,52.72c-0.56,0.05-1.1,0.08-1.61,0.09c-0.52,0.02-1.07,0.03-1.66,0.03c-0.58,0-0.9,0-0.93,0v-2.75h3.5
		v-1.45h-3.5v-0.65h4.23v2.75h-3.5v1.45l2.06-0.02c0.44-0.01,0.93-0.05,1.46-0.09c0.53-0.05,0.95-0.09,1.25-0.14v0.63
		C192.58,52.62,192.14,52.67,191.58,52.72z M193.5,56.75v-2.27h-5.39v-0.65h6.13v2.93H193.5z M194.25,50.48v2.7h-0.73v-5.7h0.73
		v2.33h1.31v0.67H194.25z"/>
	<path class="st2" d="M201.38,55.08c-0.16-0.09-0.38-0.25-0.67-0.48c-0.29-0.23-0.56-0.49-0.82-0.79c-0.2-0.25-0.38-0.49-0.51-0.73
		c-0.14-0.24-0.24-0.46-0.32-0.66c-0.07,0.2-0.18,0.44-0.33,0.72c-0.16,0.28-0.35,0.55-0.58,0.82c-0.24,0.27-0.5,0.53-0.78,0.76
		c-0.28,0.24-0.52,0.41-0.72,0.52l-0.56-0.56c0.19-0.11,0.46-0.29,0.82-0.56c0.35-0.27,0.66-0.58,0.93-0.94
		c0.27-0.35,0.48-0.73,0.62-1.13c0.14-0.4,0.21-0.81,0.21-1.22v-0.31h-2.1v-0.66h4.98v0.66h-2.1v0.31c0,0.45,0.08,0.88,0.25,1.3
		c0.17,0.42,0.39,0.79,0.68,1.12c0.3,0.34,0.57,0.6,0.82,0.79c0.25,0.19,0.47,0.33,0.66,0.43L201.38,55.08z M197.63,48.68v-0.64
		h2.84v0.64H197.63z M203.16,56.75v-4.6h-1.96v-0.67h1.96v-3.99h0.74v9.26H203.16z"/>
	<path class="st2" d="M212.63,49.24c0.43,0.73,0.65,1.66,0.65,2.79c0,1.14-0.22,2.08-0.65,2.81c-0.43,0.73-1.06,1.09-1.87,1.09
		c-0.82,0-1.44-0.36-1.86-1.09c-0.43-0.73-0.64-1.67-0.64-2.81c0-1.13,0.21-2.06,0.64-2.79c0.43-0.73,1.05-1.09,1.86-1.09
		C211.58,48.15,212.2,48.51,212.63,49.24z M212.07,54.36c0.3-0.62,0.45-1.39,0.45-2.33c0-0.92-0.15-1.69-0.45-2.3
		s-0.74-0.93-1.32-0.93c-0.57,0-1,0.31-1.3,0.93c-0.3,0.62-0.45,1.39-0.45,2.3c0,0.93,0.15,1.71,0.45,2.33
		c0.3,0.62,0.73,0.93,1.3,0.93C211.34,55.28,211.78,54.98,212.07,54.36z"/>
	<path class="st2" d="M217.9,51.55c0.46,0.45,0.67,1.08,0.63,1.89c-0.03,0.81-0.28,1.44-0.75,1.88c-0.47,0.44-1,0.66-1.58,0.66
		c-0.68,0-1.22-0.21-1.63-0.64c-0.41-0.43-0.65-0.9-0.72-1.43h0.65c0.03,0.3,0.19,0.62,0.48,0.94c0.29,0.33,0.68,0.49,1.17,0.49
		c0.51,0,0.91-0.18,1.2-0.55s0.45-0.8,0.47-1.32c0.03-0.58-0.11-1.06-0.42-1.44c-0.31-0.38-0.69-0.57-1.14-0.58
		c-0.44-0.01-0.78,0.07-1.04,0.26c-0.26,0.19-0.45,0.37-0.57,0.56h-0.59l0.5-3.88h3.69V49l-3.14,0.01l-0.3,2.33
		c0.23-0.2,0.49-0.34,0.79-0.43c0.3-0.09,0.58-0.12,0.84-0.1C216.97,50.86,217.45,51.11,217.9,51.55z"/>
	<path class="st2" d="M223.56,49.24c0.43,0.73,0.65,1.66,0.65,2.79c0,1.14-0.22,2.08-0.65,2.81c-0.43,0.73-1.06,1.09-1.87,1.09
		c-0.82,0-1.44-0.36-1.86-1.09c-0.43-0.73-0.64-1.67-0.64-2.81c0-1.13,0.21-2.06,0.64-2.79c0.43-0.73,1.05-1.09,1.86-1.09
		C222.5,48.15,223.12,48.51,223.56,49.24z M223,54.36c0.3-0.62,0.45-1.39,0.45-2.33c0-0.92-0.15-1.69-0.45-2.3s-0.74-0.93-1.32-0.93
		c-0.57,0-1,0.31-1.3,0.93c-0.3,0.62-0.45,1.39-0.45,2.3c0,0.93,0.15,1.71,0.45,2.33c0.3,0.62,0.73,0.93,1.3,0.93
		C222.26,55.28,222.7,54.98,223,54.36z"/>
	<path class="st2" d="M224.56,52.57v-0.65h5.83v0.65H224.56z"/>
	<path class="st2" d="M234.89,51.55c0.46,0.45,0.67,1.08,0.63,1.89c-0.03,0.81-0.28,1.44-0.75,1.88c-0.47,0.44-1,0.66-1.58,0.66
		c-0.68,0-1.22-0.21-1.63-0.64c-0.41-0.43-0.65-0.9-0.72-1.43h0.65c0.03,0.3,0.19,0.62,0.48,0.94c0.29,0.33,0.68,0.49,1.17,0.49
		c0.51,0,0.91-0.18,1.2-0.55c0.29-0.36,0.45-0.8,0.47-1.32c0.03-0.58-0.11-1.06-0.42-1.44c-0.31-0.38-0.69-0.57-1.14-0.58
		c-0.44-0.01-0.78,0.07-1.04,0.26c-0.26,0.19-0.45,0.37-0.57,0.56h-0.59l0.5-3.88h3.69V49l-3.14,0.01l-0.3,2.33
		c0.23-0.2,0.49-0.34,0.79-0.43c0.3-0.09,0.58-0.12,0.84-0.1C233.95,50.86,234.43,51.11,234.89,51.55z"/>
	<path class="st2" d="M240.54,49.24c0.43,0.73,0.65,1.66,0.65,2.79c0,1.14-0.22,2.08-0.65,2.81c-0.43,0.73-1.06,1.09-1.87,1.09
		c-0.82,0-1.44-0.36-1.86-1.09c-0.43-0.73-0.64-1.67-0.64-2.81c0-1.13,0.21-2.06,0.64-2.79c0.43-0.73,1.05-1.09,1.86-1.09
		C239.49,48.15,240.11,48.51,240.54,49.24z M239.98,54.36c0.3-0.62,0.45-1.39,0.45-2.33c0-0.92-0.15-1.69-0.45-2.3
		s-0.74-0.93-1.32-0.93c-0.57,0-1,0.31-1.3,0.93c-0.3,0.62-0.45,1.39-0.45,2.3c0,0.93,0.15,1.71,0.45,2.33
		c0.3,0.62,0.73,0.93,1.3,0.93C239.25,55.28,239.69,54.98,239.98,54.36z"/>
	<path class="st2" d="M245.81,51.55c0.46,0.45,0.67,1.08,0.63,1.89c-0.03,0.81-0.28,1.44-0.75,1.88c-0.47,0.44-1,0.66-1.58,0.66
		c-0.68,0-1.22-0.21-1.63-0.64c-0.41-0.43-0.65-0.9-0.72-1.43h0.65c0.03,0.3,0.19,0.62,0.48,0.94c0.29,0.33,0.68,0.49,1.17,0.49
		c0.51,0,0.91-0.18,1.2-0.55s0.45-0.8,0.47-1.32c0.03-0.58-0.11-1.06-0.42-1.44c-0.31-0.38-0.69-0.57-1.14-0.58
		c-0.44-0.01-0.78,0.07-1.04,0.26c-0.26,0.19-0.45,0.37-0.57,0.56h-0.59l0.5-3.88h3.69V49l-3.14,0.01l-0.3,2.33
		c0.23-0.2,0.49-0.34,0.79-0.43c0.3-0.09,0.58-0.12,0.84-0.1C244.88,50.86,245.36,51.11,245.81,51.55z"/>
	<path class="st2" d="M251.27,51.55c0.46,0.45,0.67,1.08,0.63,1.89c-0.03,0.81-0.28,1.44-0.75,1.88c-0.47,0.44-1,0.66-1.58,0.66
		c-0.68,0-1.22-0.21-1.63-0.64c-0.41-0.43-0.65-0.9-0.72-1.43h0.65c0.03,0.3,0.19,0.62,0.48,0.94c0.29,0.33,0.68,0.49,1.17,0.49
		c0.51,0,0.91-0.18,1.2-0.55s0.45-0.8,0.47-1.32c0.03-0.58-0.11-1.06-0.42-1.44c-0.31-0.38-0.69-0.57-1.14-0.58
		c-0.44-0.01-0.78,0.07-1.04,0.26c-0.26,0.19-0.45,0.37-0.57,0.56h-0.59l0.5-3.88h3.69V49l-3.14,0.01l-0.3,2.33
		c0.23-0.2,0.49-0.34,0.79-0.43c0.3-0.09,0.58-0.12,0.84-0.1C250.34,50.86,250.82,51.11,251.27,51.55z"/>
	<path class="st2" d="M252.47,52.57v-0.65h5.83v0.65H252.47z"/>
	<path class="st2" d="M263.36,49.03c-0.16,0.22-0.43,0.64-0.79,1.28c-0.36,0.63-0.68,1.26-0.94,1.89c-0.28,0.67-0.51,1.33-0.68,1.99
		c-0.17,0.66-0.25,1.2-0.25,1.62h-0.83c0.03-0.33,0.11-0.82,0.25-1.46c0.14-0.64,0.38-1.33,0.71-2.06c0.28-0.62,0.61-1.25,0.99-1.91
		c0.38-0.66,0.66-1.11,0.82-1.37h-3.88v-0.62h4.6V49.03z"/>
	<path class="st2" d="M264.33,55.72c0.01-0.47,0.1-0.95,0.26-1.43c0.16-0.48,0.58-0.97,1.27-1.48l1.19-0.87
		c0.28-0.2,0.52-0.43,0.73-0.69c0.21-0.26,0.31-0.57,0.32-0.94c0.01-0.45-0.12-0.82-0.4-1.11c-0.28-0.29-0.66-0.44-1.16-0.44
		c-0.51,0-0.9,0.16-1.15,0.49c-0.25,0.33-0.38,0.7-0.39,1.13h-0.62c-0.01-0.55,0.17-1.07,0.54-1.55c0.37-0.48,0.92-0.72,1.66-0.72
		c0.72,0,1.27,0.22,1.67,0.66c0.39,0.44,0.58,0.95,0.55,1.54c-0.03,0.6-0.19,1.06-0.49,1.39c-0.3,0.33-0.63,0.63-0.97,0.88
		l-1.16,0.84c-0.29,0.2-0.53,0.46-0.71,0.76c-0.18,0.31-0.31,0.62-0.37,0.94h3.81v0.59H264.33z"/>
	<path class="st2" d="M269.79,55.72c0.01-0.47,0.1-0.95,0.26-1.43c0.16-0.48,0.58-0.97,1.27-1.48l1.19-0.87
		c0.28-0.2,0.52-0.43,0.73-0.69c0.21-0.26,0.31-0.57,0.32-0.94c0.01-0.45-0.12-0.82-0.4-1.11c-0.28-0.29-0.66-0.44-1.16-0.44
		c-0.51,0-0.9,0.16-1.15,0.49c-0.25,0.33-0.38,0.7-0.39,1.13h-0.62c-0.01-0.55,0.17-1.07,0.54-1.55c0.37-0.48,0.92-0.72,1.66-0.72
		c0.72,0,1.27,0.22,1.67,0.66c0.39,0.44,0.58,0.95,0.55,1.54c-0.03,0.6-0.19,1.06-0.49,1.39c-0.3,0.33-0.63,0.63-0.97,0.88
		l-1.16,0.84c-0.29,0.2-0.53,0.46-0.71,0.76c-0.18,0.31-0.31,0.62-0.37,0.94h3.81v0.59H269.79z"/>
	<path class="st2" d="M277.43,55.78V50.2h-1.42v-0.57c0.19,0,0.37-0.03,0.55-0.08s0.35-0.15,0.54-0.28
		c0.13-0.11,0.25-0.24,0.34-0.42c0.1-0.17,0.15-0.36,0.15-0.55h0.5v7.48H277.43z"/>
</g>
</svg>
