<?xml version="1.0" encoding="utf-8"?>
<!-- Generator: Adobe Illustrator 25.2.1, SVG Export Plug-In . SVG Version: 6.00 Build 0)  -->
<svg version="1.1" id="레이어_1" xmlns="http://www.w3.org/2000/svg" xmlns:xlink="http://www.w3.org/1999/xlink" x="0px"
	 y="0px" viewBox="0 0 200 96" style="enable-background:new 0 0 200 96;" xml:space="preserve">
<style type="text/css">
	.st0{fill:#463884;}
</style>
<g>
	<path class="st0" d="M93.87,63.65c-0.79-0.47-1.69-0.71-2.69-0.71c-0.98,0-1.86,0.24-2.65,0.71c-0.78,0.47-1.41,1.1-1.86,1.89
		c-0.46,0.79-0.69,1.67-0.69,2.65c0,1.07,0.27,2.01,0.8,2.81c0.53,0.8,1.18,1.41,1.94,1.82c0.75,0.41,1.57,0.61,2.46,0.61
		c1.07,0,2.01-0.27,2.83-0.8c0.82-0.54,1.42-1.19,1.82-1.96c0.39-0.77,0.59-1.6,0.59-2.48c0-1.01-0.23-1.9-0.68-2.67
		C95.28,64.74,94.66,64.12,93.87,63.65z"/>
	<path class="st0" d="M101.15,21.75C98.42,19.25,95.06,18,91.08,18c-3.58,0-6.88,1.1-9.9,3.31c-2.72,1.99-4.21,4.63-4.48,7.92
		c-0.12,0.69-0.19,1.4-0.19,2.12c0,6.58,5.33,11.91,11.91,11.91c1.38,0,2.69-0.24,3.92-0.67c0.19-0.31,0.38-0.69,0.57-1.15
		l1.04-2.49l-5.2-10.89c-0.28-0.64-0.81-1.17-1.2-1.57c-0.39-0.41-1.18-0.68-1.74-0.82v-0.12h6.8v0.26v0.09
		c-0.57,0-0.83-0.01-1.07,0.19c-0.23,0.2-0.36,0.4-0.36,0.72c0,0.42,0.17,0.96,0.51,1.67l3.5,7.28l3.25-7.98
		c0.17-0.44,0.26-0.87,0.26-1.3c0-0.25-0.13-0.45-0.3-0.59c-0.16-0.14-0.7-0.21-1.26-0.21v-0.12h4.53v0.12
		c-0.57,0.03-0.38,0.07-0.56,0.12c-0.18,0.05-0.27,0.14-0.41,0.28c-0.14,0.14-0.25,0.35-0.39,0.63c-0.14,0.28-0.3,0.67-0.5,1.15
		L94.12,41.8c0.03-0.02,0.07-0.03,0.1-0.05c-0.37,0.97-0.81,2.02-1.31,3.16c-1.33,3.02-2.2,4.73-2.61,6.65
		c-0.41,1.92-0.62,3.99-0.62,5.81c0,0.4,0.02,1.04,0.05,1.61h2.07c0.16-2.27,0.57-4.32,1.21-5.88c0.86-2.09,1.89-4.94,4.17-7.69
		c2.82-3.42,5.32-5.18,6.42-7.4c1.09-2.22,1.64-4.55,1.64-6.94C105.25,27.38,103.89,24.26,101.15,21.75z"/>
	<g>
		<g>
			<path class="st0" d="M8.42,63.84v0.98H5.77v7.22H4.7v-7.22H2.05v-0.98H8.42z"/>
			<path class="st0" d="M5.82,72.08H4.65v-7.22H2V63.8h6.47v1.07H5.82V72.08z M4.75,71.99h0.98v-7.22h2.65v-0.88H2.1v0.88h2.65
				V71.99z"/>
		</g>
		<g>
			<path class="st0" d="M15.46,63.84h1.08v3.38h4.04v-3.38h1.08v8.19h-1.08v-3.83h-4.04v3.83h-1.08V63.84z"/>
			<path class="st0" d="M21.7,72.08h-1.17v-3.83h-3.95v3.83h-1.17V63.8h1.17v3.38h3.95V63.8h1.17V72.08z M20.63,71.99h0.98v-8.1
				h-0.98v3.38h-4.14v-3.38h-0.98v8.1h0.98v-3.83h4.14V71.99z"/>
		</g>
		<g>
			<path class="st0" d="M29.48,63.84h5.71v1h-4.67v2.49h4.32v0.95h-4.32v2.78h4.75v0.98h-5.79V63.84z"/>
			<path class="st0" d="M35.32,72.08h-5.88V63.8h5.8v1.1h-4.67v2.39h4.32v1.04h-4.32v2.68h4.75V72.08z M29.53,71.99h5.69v-0.88
				h-4.75v-2.87h4.32v-0.85h-4.32V64.8h4.67v-0.91h-5.61V71.99z"/>
		</g>
		<g>
			<path class="st0" d="M51,63.84h1.24l2.26,3.94l2.26-3.94h1.25l-2.98,4.89v3.3h-1.07v-3.3L51,63.84z"/>
			<path class="st0" d="M55.09,72.08h-1.16v-3.34l-3.01-4.95h1.35l2.23,3.89l2.23-3.89h1.36l-3.01,4.95V72.08z M54.02,71.99h0.97
				v-3.27L55,68.71l2.93-4.82h-1.14l-2.29,3.98l-2.29-3.98h-1.13l2.93,4.83V71.99z"/>
		</g>
		<g>
			<path class="st0" d="M79.4,64.44c0.54,0.55,0.84,1.17,0.91,1.86h-1.04c-0.12-0.53-0.35-0.95-0.69-1.25
				c-0.34-0.31-0.83-0.46-1.45-0.46c-0.76,0-1.37,0.28-1.84,0.85c-0.47,0.57-0.7,1.44-0.7,2.61c0,0.96,0.21,1.74,0.63,2.34
				c0.42,0.6,1.05,0.9,1.89,0.9c0.77,0,1.36-0.31,1.76-0.94c0.21-0.33,0.37-0.77,0.48-1.3h1.04c-0.09,0.86-0.39,1.59-0.91,2.17
				c-0.62,0.7-1.45,1.05-2.5,1.05c-0.9,0-1.66-0.29-2.28-0.87c-0.81-0.76-1.21-1.94-1.21-3.53c0-1.21,0.3-2.2,0.91-2.97
				c0.66-0.84,1.56-1.26,2.71-1.26C78.09,63.62,78.85,63.89,79.4,64.44z"/>
			<path class="st0" d="M76.97,72.3c-0.91,0-1.69-0.3-2.31-0.88c-0.81-0.77-1.23-1.97-1.23-3.57c0-1.21,0.31-2.22,0.92-3
				c0.66-0.85,1.59-1.28,2.75-1.28c0.99,0,1.78,0.28,2.32,0.83c0.55,0.55,0.86,1.19,0.92,1.89l0,0.05h-1.13l-0.01-0.04
				c-0.11-0.52-0.34-0.93-0.68-1.23c-0.33-0.3-0.81-0.45-1.42-0.45c-0.74,0-1.35,0.28-1.81,0.83c-0.46,0.56-0.69,1.42-0.69,2.58
				c0,0.94,0.21,1.72,0.62,2.31c0.41,0.58,1.03,0.88,1.85,0.88c0.75,0,1.33-0.31,1.72-0.92c0.21-0.32,0.37-0.76,0.47-1.29l0.01-0.04
				h1.13l-0.01,0.05c-0.09,0.87-0.4,1.61-0.92,2.2C78.88,71.94,78.03,72.3,76.97,72.3z M77.1,63.67c-1.13,0-2.03,0.42-2.68,1.24
				c-0.6,0.76-0.9,1.75-0.9,2.94c0,1.57,0.4,2.75,1.2,3.5c0.6,0.57,1.36,0.85,2.24,0.85c1.03,0,1.86-0.35,2.46-1.04
				c0.5-0.56,0.8-1.27,0.89-2.09h-0.95c-0.11,0.52-0.27,0.96-0.48,1.28c-0.41,0.64-1.02,0.96-1.8,0.96c-0.85,0-1.5-0.31-1.93-0.92
				c-0.43-0.6-0.64-1.4-0.64-2.36c0-1.18,0.24-2.07,0.71-2.64c0.47-0.58,1.11-0.87,1.88-0.87c0.63,0,1.13,0.16,1.49,0.47
				c0.34,0.31,0.58,0.72,0.7,1.24h0.95c-0.07-0.66-0.37-1.26-0.89-1.78C78.83,63.94,78.07,63.67,77.1,63.67z"/>
		</g>
		<g>
			<path class="st0" d="M94.26,65.02c0.52,0.73,0.78,1.65,0.78,2.78c0,1.22-0.3,2.24-0.89,3.05c-0.7,0.95-1.7,1.43-2.99,1.43
				c-1.21,0-2.16-0.42-2.85-1.25c-0.62-0.8-0.93-1.82-0.93-3.04c0-1.11,0.26-2.06,0.79-2.84c0.68-1.01,1.68-1.52,3.01-1.52
				C92.56,63.62,93.59,64.09,94.26,65.02z M93.32,70.24c0.42-0.7,0.63-1.51,0.63-2.42c0-0.96-0.24-1.74-0.73-2.33
				c-0.48-0.59-1.14-0.88-1.98-0.88c-0.81,0-1.48,0.29-1.99,0.87c-0.51,0.58-0.77,1.44-0.77,2.57c0,0.91,0.22,1.67,0.66,2.3
				c0.44,0.62,1.16,0.93,2.14,0.93C92.22,71.29,92.9,70.94,93.32,70.24z"/>
			<path class="st0" d="M91.15,72.32c-1.22,0-2.19-0.43-2.89-1.27c-0.62-0.81-0.94-1.84-0.94-3.08c0-1.11,0.27-2.08,0.8-2.87
				c0.68-1.02,1.71-1.54,3.05-1.54c1.4,0,2.45,0.48,3.12,1.41c0.52,0.73,0.79,1.68,0.79,2.81c0,1.23-0.3,2.26-0.9,3.08
				C93.48,71.84,92.46,72.32,91.15,72.32z M91.18,63.67c-1.3,0-2.3,0.5-2.97,1.5c-0.52,0.78-0.78,1.72-0.78,2.82
				c0,1.21,0.31,2.23,0.92,3.02c0.68,0.82,1.63,1.23,2.82,1.23c1.27,0,2.27-0.47,2.95-1.41c0.59-0.8,0.89-1.82,0.89-3.02
				c0-1.12-0.26-2.04-0.77-2.76C93.57,64.13,92.54,63.67,91.18,63.67z M91.28,71.34c-1,0-1.74-0.32-2.18-0.96
				c-0.44-0.63-0.67-1.41-0.67-2.33c0-1.14,0.26-2.02,0.78-2.61c0.52-0.59,1.2-0.89,2.03-0.89c0.85,0,1.53,0.3,2.02,0.9
				c0.49,0.59,0.74,1.39,0.74,2.36c0,0.92-0.21,1.74-0.64,2.44C92.93,70.98,92.24,71.34,91.28,71.34z M91.24,64.66
				c-0.8,0-1.45,0.29-1.96,0.86c-0.5,0.57-0.76,1.43-0.76,2.54c0,0.89,0.22,1.66,0.65,2.27c0.43,0.61,1.14,0.91,2.11,0.91
				c0.92,0,1.59-0.35,1.99-1.03c0.41-0.69,0.62-1.5,0.62-2.4c0-0.95-0.24-1.72-0.71-2.3C92.71,64.95,92.06,64.66,91.24,64.66z"/>
		</g>
		<g>
			<path class="st0" d="M102.34,63.84h1.25l3.92,6.62v-6.62h1.02v8.19h-1.2l-3.98-6.61v6.61h-1.02V63.84z"/>
			<path class="st0" d="M108.58,72.08h-1.27l-0.01-0.02l-3.89-6.47v6.49h-1.11V63.8h1.33l0.01,0.02l3.83,6.47V63.8h1.11V72.08z
				 M107.36,71.99h1.12v-8.1h-0.92v6.74l-0.09-0.15l-3.91-6.59h-1.18v8.1h0.92v-6.74L107.36,71.99z"/>
		</g>
		<g>
			<path class="st0" d="M116.98,69.39c0.02,0.46,0.13,0.84,0.3,1.13c0.34,0.54,0.94,0.81,1.8,0.81c0.39,0,0.74-0.06,1.05-0.18
				c0.61-0.23,0.92-0.64,0.92-1.24c0-0.45-0.13-0.76-0.39-0.95c-0.26-0.19-0.67-0.35-1.23-0.49l-1.03-0.25
				c-0.68-0.16-1.15-0.34-1.43-0.54c-0.48-0.34-0.73-0.85-0.73-1.53c0-0.74,0.24-1.34,0.71-1.81c0.48-0.47,1.15-0.71,2.02-0.71
				c0.8,0,1.48,0.21,2.04,0.62c0.56,0.41,0.84,1.08,0.84,1.99h-1c-0.05-0.44-0.16-0.78-0.33-1.01c-0.31-0.43-0.84-0.64-1.59-0.64
				c-0.6,0-1.03,0.14-1.3,0.41c-0.26,0.28-0.4,0.59-0.4,0.96c0,0.4,0.16,0.7,0.47,0.88c0.2,0.12,0.67,0.27,1.39,0.45l1.07,0.26
				c0.52,0.13,0.91,0.3,1.19,0.52c0.48,0.38,0.73,0.94,0.73,1.67c0,0.91-0.31,1.56-0.93,1.95c-0.62,0.39-1.34,0.59-2.15,0.59
				c-0.95,0-1.7-0.26-2.24-0.78c-0.54-0.52-0.8-1.22-0.79-2.1H116.98z"/>
			<path class="st0" d="M119.02,72.32c-0.96,0-1.73-0.27-2.27-0.79c-0.55-0.52-0.82-1.24-0.81-2.14v-0.05h1.09l0,0.05
				c0.02,0.45,0.12,0.83,0.3,1.11c0.33,0.53,0.92,0.79,1.76,0.79c0.38,0,0.73-0.06,1.04-0.18c0.6-0.22,0.89-0.62,0.89-1.19
				c0-0.43-0.12-0.74-0.37-0.92c-0.26-0.18-0.67-0.34-1.22-0.48l-1.03-0.25c-0.68-0.16-1.16-0.35-1.45-0.55
				c-0.5-0.35-0.75-0.88-0.75-1.57c0-0.75,0.24-1.37,0.73-1.85c0.48-0.48,1.18-0.72,2.06-0.72c0.81,0,1.51,0.21,2.07,0.63
				c0.57,0.42,0.86,1.1,0.86,2.03v0.05h-1.09l0-0.04c-0.05-0.43-0.16-0.76-0.32-0.99c-0.3-0.41-0.82-0.62-1.55-0.62
				c-0.59,0-1.01,0.13-1.26,0.4c-0.25,0.26-0.38,0.58-0.38,0.93c0,0.39,0.15,0.66,0.44,0.84c0.2,0.12,0.66,0.26,1.37,0.44l1.07,0.26
				c0.52,0.13,0.93,0.3,1.21,0.53c0.49,0.39,0.74,0.96,0.74,1.7c0,0.92-0.32,1.59-0.95,1.99C120.57,72.12,119.84,72.32,119.02,72.32
				z M116.03,69.44c0,0.85,0.26,1.53,0.78,2.02c0.53,0.51,1.27,0.77,2.21,0.77c0.8,0,1.52-0.19,2.13-0.58
				c0.6-0.38,0.9-1.02,0.9-1.91c0-0.71-0.24-1.26-0.71-1.63c-0.27-0.21-0.67-0.39-1.18-0.51l-1.07-0.26
				c-0.72-0.18-1.19-0.33-1.4-0.45c-0.33-0.2-0.49-0.51-0.49-0.92c0-0.37,0.14-0.71,0.41-0.99c0.27-0.28,0.72-0.43,1.33-0.43
				c0.76,0,1.3,0.22,1.62,0.66c0.17,0.23,0.28,0.57,0.33,0.99h0.91c-0.01-0.87-0.29-1.51-0.82-1.9c-0.55-0.41-1.23-0.61-2.02-0.61
				c-0.85,0-1.52,0.23-1.99,0.69c-0.46,0.46-0.7,1.06-0.7,1.78c0,0.66,0.24,1.16,0.71,1.49c0.27,0.19,0.75,0.37,1.41,0.53l1.03,0.25
				c0.56,0.14,0.98,0.3,1.25,0.49c0.27,0.2,0.41,0.53,0.41,0.99c0,0.61-0.32,1.05-0.95,1.28c-0.32,0.12-0.68,0.18-1.07,0.18
				c-0.87,0-1.49-0.28-1.84-0.84c-0.18-0.29-0.28-0.66-0.31-1.11H116.03z"/>
		</g>
		<g>
			<path class="st0" d="M130.78,63.84v5.06c0,0.59,0.11,1.09,0.32,1.48c0.32,0.6,0.86,0.89,1.62,0.89c0.91,0,1.53-0.32,1.86-0.96
				c0.18-0.35,0.27-0.82,0.27-1.41v-5.06h1.08v4.6c0,1.01-0.13,1.78-0.39,2.33c-0.48,0.99-1.39,1.48-2.72,1.48
				c-1.33,0-2.24-0.49-2.71-1.48c-0.26-0.54-0.39-1.32-0.39-2.33v-4.6H130.78z"/>
			<path class="st0" d="M132.81,72.3c-1.35,0-2.27-0.51-2.76-1.51c-0.26-0.55-0.4-1.34-0.4-2.35V63.8h1.17v5.11
				c0,0.58,0.11,1.08,0.32,1.46c0.31,0.58,0.84,0.87,1.58,0.87c0.89,0,1.5-0.32,1.81-0.94c0.17-0.34,0.26-0.81,0.26-1.39V63.8h1.17
				v4.65c0,1.01-0.13,1.8-0.4,2.35C135.09,71.79,134.16,72.3,132.81,72.3z M129.75,63.89v4.55c0,0.99,0.13,1.77,0.39,2.3
				c0.47,0.97,1.36,1.46,2.67,1.46c1.31,0,2.21-0.49,2.68-1.46c0.26-0.53,0.39-1.31,0.39-2.3v-4.55h-0.98v5.02
				c0,0.6-0.09,1.08-0.27,1.43c-0.33,0.66-0.97,0.99-1.9,0.99c-0.77,0-1.33-0.31-1.66-0.92c-0.22-0.4-0.33-0.91-0.33-1.51v-5.02
				H129.75z"/>
		</g>
		<g>
			<path class="st0" d="M143.58,63.84h1.07v7.22h3.95v0.98h-5.01V63.84z"/>
			<path class="st0" d="M148.64,72.08h-5.11V63.8h1.16v7.22h3.95V72.08z M143.63,71.99h4.92v-0.88h-3.95v-7.22h-0.97V71.99z"/>
		</g>
		<g>
			<path class="st0" d="M160.61,63.84v0.98h-2.65v7.22h-1.08v-7.22h-2.65v-0.98H160.61z"/>
			<path class="st0" d="M158.01,72.08h-1.17v-7.22h-2.65V63.8h6.47v1.07h-2.65V72.08z M156.94,71.99h0.98v-7.22h2.65v-0.88h-6.28
				v0.88h2.65V71.99z"/>
		</g>
		<g>
			<path class="st0" d="M167.87,63.84h1.08v8.19h-1.08V63.84z"/>
			<path class="st0" d="M168.99,72.08h-1.17V63.8h1.17V72.08z M167.91,71.99h0.98v-8.1h-0.98V71.99z"/>
		</g>
		<g>
			<path class="st0" d="M176.7,63.84h1.25l3.92,6.62v-6.62h1.02v8.19h-1.2l-3.98-6.61v6.61h-1.02V63.84z"/>
			<path class="st0" d="M182.94,72.08h-1.27l-0.01-0.02l-3.89-6.47v6.49h-1.11V63.8h1.33l0.01,0.02l3.83,6.47V63.8h1.11V72.08z
				 M181.72,71.99h1.12v-8.1h-0.92v6.74l-0.09-0.15l-3.91-6.59h-1.18v8.1h0.92v-6.74L181.72,71.99z"/>
		</g>
		<g>
			<path class="st0" d="M195.88,64.08c0.77,0.43,1.24,1.18,1.41,2.25h-1.05c-0.13-0.6-0.39-1.04-0.78-1.31
				c-0.4-0.27-0.89-0.41-1.49-0.41c-0.71,0-1.31,0.28-1.8,0.85c-0.49,0.57-0.73,1.42-0.73,2.54c0,0.97,0.2,1.77,0.6,2.38
				c0.4,0.61,1.06,0.92,1.97,0.92c0.7,0,1.27-0.22,1.73-0.65c0.46-0.43,0.69-1.12,0.7-2.08h-2.46v-0.92h3.45v4.38h-0.69l-0.26-1.05
				c-0.35,0.41-0.67,0.7-0.94,0.86c-0.46,0.28-1.04,0.41-1.75,0.41c-0.92,0-1.7-0.31-2.36-0.94c-0.72-0.79-1.08-1.87-1.08-3.25
				c0-1.37,0.35-2.46,1.06-3.27c0.67-0.77,1.53-1.16,2.6-1.16C194.72,63.63,195.35,63.78,195.88,64.08z"/>
			<path class="st0" d="M193.79,72.3c-0.92,0-1.73-0.32-2.4-0.96c-0.73-0.8-1.09-1.9-1.09-3.28c0-1.38,0.36-2.49,1.07-3.3
				c0.68-0.78,1.56-1.18,2.63-1.18c0.73,0,1.38,0.15,1.91,0.45c0.78,0.43,1.26,1.2,1.44,2.28l0.01,0.05h-1.15l-0.01-0.04
				c-0.12-0.58-0.38-1.02-0.76-1.28c-0.38-0.27-0.88-0.4-1.47-0.4c-0.69,0-1.29,0.28-1.77,0.84c-0.48,0.56-0.72,1.4-0.72,2.51
				c0,0.96,0.2,1.75,0.6,2.35c0.39,0.59,1.04,0.9,1.93,0.9c0.68,0,1.25-0.21,1.7-0.63c0.44-0.41,0.67-1.08,0.68-2h-2.46v-1.02h3.55
				v4.48h-0.77l-0.01-0.04l-0.23-0.96c-0.33,0.38-0.63,0.65-0.89,0.8C195.1,72.16,194.5,72.3,193.79,72.3z M193.99,63.68
				c-1.04,0-1.9,0.38-2.56,1.14c-0.69,0.8-1.04,1.89-1.04,3.24c0,1.36,0.36,2.44,1.07,3.21c0.65,0.61,1.43,0.93,2.33,0.93
				c0.7,0,1.28-0.14,1.73-0.41c0.27-0.16,0.58-0.44,0.93-0.85l0.06-0.07l0.02,0.09l0.25,1.02h0.6V67.7h-3.36v0.82h2.46l0,0.05
				c-0.01,0.97-0.25,1.68-0.72,2.12c-0.46,0.44-1.06,0.66-1.76,0.66c-0.92,0-1.6-0.32-2.01-0.94c-0.41-0.62-0.61-1.43-0.61-2.4
				c0-1.13,0.25-2,0.74-2.57c0.5-0.58,1.11-0.87,1.84-0.87c0.61,0,1.12,0.14,1.52,0.42c0.4,0.27,0.66,0.71,0.79,1.3h0.96
				c-0.18-1.02-0.64-1.75-1.38-2.16C195.34,63.83,194.71,63.68,193.99,63.68z"/>
		</g>
	</g>
</g>
</svg>
